<svg id="svg" version="1.1" xmlns="http://www.w3.org/2000/svg" xmlns:xlink="http://www.w3.org/1999/xlink" width="100" height="100.28125" viewBox="0, 0, 400,263.28125"><g id="svgg"><path id="path0" d="M86.899 5.248 C 84.443 6.166,83.652 6.652,82.202 8.130 C 79.742 10.638,79.009 12.186,78.882 15.139 C 78.788 17.316,78.661 17.643,77.914 17.643 C 77.624 17.643,76.772 17.836,76.021 18.072 C 73.051 19.003,69.856 20.108,68.729 20.594 C 68.078 20.875,67.130 21.282,66.623 21.500 C 58.784 24.863,48.900 32.467,43.041 39.642 C 35.652 48.691,31.761 56.438,28.431 68.729 C 25.491 79.584,25.934 95.793,29.562 110.072 C 30.372 113.261,32.539 116.050,34.785 116.796 C 37.178 117.590,48.224 117.088,57.275 115.773 C 62.987 114.943,71.732 113.245,77.683 111.811 C 82.282 110.703,83.994 110.285,85.385 109.931 C 86.218 109.719,87.581 109.374,88.413 109.164 C 89.246 108.955,90.579 108.606,91.376 108.388 C 92.172 108.171,93.357 107.859,94.009 107.694 C 94.661 107.529,95.431 107.296,95.721 107.176 C 96.428 106.883,98.490 106.354,99.144 106.299 C 99.622 106.258,99.666 106.400,99.622 107.834 C 99.596 108.703,99.456 114.924,99.311 121.659 C 99.117 130.703,98.938 134.532,98.627 136.308 C 95.602 153.571,71.177 146.227,59.507 124.545 L 58.360 122.413 57.027 122.593 C 56.294 122.692,55.506 122.872,55.276 122.992 C 54.630 123.332,48.033 123.848,46.326 123.694 C 44.515 123.529,44.510 123.422,46.442 126.662 C 51.137 134.539,58.005 142.613,64.253 147.599 C 65.339 148.466,66.287 149.237,66.359 149.313 C 66.753 149.725,71.511 152.802,73.084 153.661 C 94.245 165.226,108.075 160.974,111.128 141.965 C 111.739 138.160,111.937 109.397,111.367 107.342 C 110.996 106.009,111.175 105.902,113.364 106.146 C 119.125 106.788,124.325 107.004,133.772 106.994 C 145.488 106.981,150.845 106.601,158.789 105.222 C 160.020 105.008,161.797 104.703,162.739 104.545 C 163.680 104.386,164.687 104.151,164.977 104.023 C 165.267 103.895,165.978 103.713,166.557 103.619 C 169.166 103.196,178.553 100.033,182.672 98.190 C 183.279 97.918,183.901 97.696,184.054 97.696 C 184.207 97.696,184.332 97.590,184.332 97.461 C 184.332 97.332,184.627 97.152,184.989 97.061 C 187.210 96.504,193.461 92.020,194.893 89.957 C 198.048 85.412,193.141 82.499,178.407 80.171 C 176.959 79.942,174.665 79.564,173.309 79.331 L 170.845 78.906 169.491 79.644 C 166.842 81.089,162.054 83.442,160.369 84.129 C 157.975 85.103,156.879 85.573,156.410 85.825 C 156.188 85.945,155.617 86.128,155.141 86.232 C 154.666 86.337,153.959 86.588,153.570 86.791 C 153.182 86.994,152.714 87.160,152.531 87.161 C 152.348 87.162,151.992 87.271,151.741 87.404 C 151.264 87.655,148.982 88.370,146.280 89.114 C 145.411 89.354,144.339 89.664,143.897 89.803 C 143.455 89.942,142.566 90.171,141.922 90.312 C 141.278 90.453,139.980 90.739,139.039 90.948 C 132.825 92.324,127.658 93.065,121.396 93.475 C 119.151 93.622,115.714 93.859,113.759 94.003 C 106.142 94.561,103.489 94.609,103.489 94.189 C 103.489 93.679,104.015 93.476,106.386 93.073 C 110.301 92.406,113.637 91.720,117.841 90.718 C 118.855 90.476,120.395 90.119,121.264 89.924 C 122.133 89.729,123.792 89.313,124.951 88.999 C 126.109 88.685,127.531 88.314,128.111 88.175 C 128.690 88.035,130.586 87.501,132.324 86.988 C 134.062 86.475,136.017 85.903,136.669 85.716 C 138.402 85.220,142.247 83.994,142.857 83.744 C 143.147 83.625,144.154 83.269,145.095 82.954 C 146.037 82.638,147.013 82.271,147.264 82.138 C 147.516 82.005,147.871 81.892,148.054 81.887 C 148.237 81.882,148.861 81.649,149.440 81.369 C 150.020 81.089,150.643 80.857,150.826 80.852 C 151.009 80.847,151.365 80.728,151.616 80.589 C 151.868 80.449,152.666 80.087,153.390 79.784 C 154.115 79.482,154.944 79.134,155.234 79.012 C 156.919 78.301,163.043 75.196,163.173 74.986 C 163.258 74.848,163.200 74.481,163.045 74.168 C 162.889 73.856,162.643 72.890,162.497 72.021 C 162.110 69.715,161.579 67.320,161.387 67.018 C 161.295 66.873,161.132 66.226,161.025 65.580 C 160.918 64.933,160.736 64.222,160.622 64.000 C 160.507 63.777,160.157 62.765,159.844 61.751 C 159.530 60.737,159.106 59.534,158.900 59.078 C 158.694 58.622,158.525 58.142,158.525 58.011 C 158.525 57.376,154.011 48.388,152.667 46.346 C 148.716 40.344,143.501 34.563,138.644 30.802 C 137.630 30.016,136.741 29.312,136.669 29.236 C 136.596 29.160,136.341 28.980,136.102 28.835 C 135.515 28.479,132.394 26.414,132.045 26.149 C 131.630 25.835,130.294 25.110,126.926 23.371 C 120.762 20.190,113.980 17.983,106.517 16.729 C 103.745 16.263,103.490 16.144,103.483 15.311 C 103.419 8.442,93.866 2.646,86.899 5.248 M216.722 35.828 C 187.248 35.922,162.096 36.017,160.827 36.038 L 158.521 36.076 160.893 39.599 C 162.198 41.537,163.265 43.245,163.265 43.396 C 163.265 43.546,163.358 43.709,163.472 43.757 C 163.743 43.872,165.832 47.919,166.263 49.163 L 166.599 50.132 262.628 50.060 L 358.658 49.988 358.592 127.759 L 358.525 205.530 233.838 205.530 L 109.151 205.530 109.083 187.821 L 109.015 170.112 102.168 170.112 L 95.320 170.112 95.397 192.429 C 95.454 209.056,95.556 215.049,95.797 215.932 C 96.774 219.509,99.566 222.989,102.705 224.545 C 106.265 226.308,102.970 226.201,153.959 226.201 L 200.173 226.201 200.041 228.111 C 199.968 229.161,199.729 231.145,199.510 232.521 C 199.290 233.897,198.928 236.267,198.704 237.788 C 197.280 247.475,197.332 247.237,196.611 247.402 C 196.303 247.472,190.599 247.560,183.937 247.596 L 171.824 247.663 170.743 248.282 C 168.670 249.471,167.780 256.047,169.193 259.746 L 169.657 260.961 230.278 260.961 C 287.681 260.961,290.921 260.937,291.309 260.500 C 293.334 258.222,293.054 250.692,290.867 248.618 C 289.312 247.144,287.954 247.005,275.151 247.005 L 263.700 247.005 263.393 245.490 C 263.225 244.658,262.960 242.910,262.804 241.606 C 262.649 240.303,262.462 239.037,262.388 238.794 C 262.263 238.382,261.912 235.704,261.125 229.157 C 260.947 227.668,260.856 226.394,260.925 226.326 C 260.993 226.257,283.238 226.201,310.358 226.201 C 353.882 226.201,359.863 226.154,361.335 225.796 C 366.185 224.615,369.738 221.386,371.319 216.722 C 372.073 214.499,372.086 46.760,371.332 44.580 C 369.862 40.325,366.702 37.357,362.163 35.968 C 360.643 35.503,327.905 35.471,216.722 35.828 M263.331 58.698 C 256.789 60.684,253.700 67.381,258.068 70.109 C 258.442 70.343,258.591 70.723,258.591 71.442 C 258.591 75.665,265.102 80.049,268.652 78.218 C 270.658 77.183,272.438 74.623,273.180 71.707 L 273.502 70.441 275.307 70.362 C 279.121 70.196,280.115 67.846,276.951 66.479 C 275.632 65.909,274.654 65.098,274.654 64.574 C 274.654 63.687,272.999 60.806,271.995 59.947 C 269.992 58.232,266.517 57.731,263.331 58.698 M302.323 74.589 C 302.194 74.914,301.947 75.562,301.773 76.028 L 301.457 76.875 300.237 76.226 C 299.102 75.621,298.091 75.384,298.091 75.721 C 298.091 75.968,298.943 77.544,299.152 77.683 C 299.522 77.929,300.505 80.032,300.359 80.267 C 300.280 80.396,299.648 80.712,298.955 80.969 C 290.677 84.041,279.766 91.593,280.335 93.858 C 280.458 94.348,279.990 95.776,279.527 96.323 C 279.492 96.364,278.826 96.164,278.046 95.878 C 276.401 95.274,274.512 94.884,270.836 94.388 C 266.840 93.849,265.906 93.598,265.344 92.915 C 264.435 91.810,262.266 86.877,260.963 82.949 C 259.660 79.023,257.390 76.612,253.916 75.464 C 247.959 73.494,232.457 86.519,230.559 95.088 C 229.481 99.957,231.030 102.216,237.788 105.628 C 240.178 106.835,242.172 107.914,242.221 108.026 C 242.269 108.138,242.459 108.229,242.644 108.229 C 243.270 108.229,246.465 111.380,246.293 111.829 C 246.113 112.297,243.080 112.209,242.460 111.717 C 242.280 111.574,241.694 111.379,241.157 111.282 C 240.620 111.185,239.849 110.933,239.445 110.723 C 239.041 110.512,238.509 110.338,238.264 110.337 C 238.019 110.336,237.746 110.217,237.656 110.072 C 237.567 109.928,237.311 109.809,237.088 109.809 C 235.983 109.809,230.965 107.187,230.543 106.389 L 230.194 105.727 229.904 106.481 C 229.668 107.099,229.494 107.212,228.948 107.108 C 228.208 106.966,228.212 107.660,228.961 109.219 C 229.763 110.889,229.758 111.217,228.930 111.013 C 221.569 109.198,215.049 110.404,209.957 114.520 C 208.441 115.746,208.266 115.821,207.457 115.589 C 201.837 113.977,195.872 116.229,191.713 121.533 C 186.412 128.293,182.468 130.606,176.234 130.610 L 173.272 130.612 173.272 131.271 C 173.272 132.039,173.223 132.047,171.579 131.553 C 170.235 131.148,169.397 130.369,169.937 130.025 C 170.122 129.907,170.009 129.829,169.651 129.826 C 168.853 129.821,168.898 130.052,170.015 131.702 C 174.440 138.233,184.420 141.385,190.293 138.106 C 192.580 136.828,196.708 131.864,196.708 130.391 C 196.708 130.247,196.797 130.090,196.906 130.042 C 197.014 129.993,197.400 129.376,197.762 128.670 C 198.618 127.000,200.431 124.977,201.450 124.555 C 202.417 124.154,202.694 124.349,202.294 125.149 C 201.093 127.550,200.932 132.115,201.858 137.459 C 203.204 145.216,202.472 147.310,197.630 149.555 C 195.256 150.656,194.424 152.027,192.989 157.209 C 192.848 157.716,192.629 158.367,192.501 158.657 C 192.373 158.947,192.009 160.072,191.692 161.159 C 191.374 162.245,191.010 163.246,190.883 163.384 C 190.756 163.521,190.652 163.811,190.652 164.027 C 190.652 165.286,186.828 172.076,184.207 175.472 C 182.349 177.879,182.019 178.071,181.218 177.211 C 180.004 175.908,177.895 176.479,176.580 178.467 C 175.603 179.942,175.460 180.990,176.141 181.671 C 176.805 182.335,176.827 182.670,176.278 183.770 C 175.318 185.694,176.742 188.282,178.760 188.282 C 179.345 188.282,179.888 188.179,179.966 188.052 C 180.044 187.926,180.476 187.749,180.926 187.659 C 181.820 187.481,186.205 185.349,187.887 184.276 C 189.851 183.022,193.085 179.272,194.377 176.748 C 194.835 175.852,194.947 175.529,196.605 170.309 C 197.145 168.608,197.686 167.215,197.806 167.215 C 197.926 167.215,198.025 167.062,198.025 166.874 C 198.025 163.839,208.535 154.812,213.438 153.637 C 213.868 153.534,214.338 153.362,214.483 153.256 C 215.757 152.318,223.125 152.062,226.596 152.835 C 233.075 154.278,236.998 152.452,236.998 147.993 C 236.998 147.544,237.191 146.802,237.428 146.345 C 237.665 145.886,237.745 145.476,237.606 145.430 C 237.250 145.311,233.048 142.211,233.048 142.067 C 233.048 141.763,235.268 140.910,235.527 141.115 C 236.417 141.817,244.431 145.622,245.020 145.622 C 245.225 145.622,245.463 145.734,245.547 145.870 C 245.631 146.007,246.260 146.187,246.945 146.272 C 247.629 146.356,249.019 146.600,250.033 146.814 C 251.047 147.027,252.765 147.389,253.851 147.619 C 255.100 147.882,257.716 148.077,260.961 148.150 C 271.743 148.390,274.173 148.819,273.121 150.296 C 272.637 150.976,271.231 153.839,271.231 154.145 C 271.231 154.217,270.876 155.043,270.441 155.982 C 270.007 156.921,269.651 157.870,269.651 158.092 C 269.651 158.313,269.555 158.554,269.438 158.626 C 269.320 158.699,268.944 159.715,268.601 160.884 L 267.978 163.011 264.404 162.843 C 260.230 162.648,257.786 162.178,257.406 161.499 C 256.106 159.169,252.032 157.915,250.345 159.324 C 250.173 159.467,249.722 159.817,249.342 160.101 C 248.310 160.873,247.795 162.195,247.795 164.071 L 247.795 165.720 246.280 167.202 C 245.448 168.017,244.183 169.154,243.470 169.727 C 241.420 171.377,239.742 172.905,236.172 176.371 C 232.898 179.549,232.825 179.600,231.695 179.559 C 231.063 179.537,230.098 179.610,229.549 179.723 C 228.637 179.910,227.018 179.416,226.465 178.783 C 226.392 178.700,226.138 178.560,225.900 178.472 C 223.057 177.426,219.889 174.728,219.583 173.093 C 218.908 169.479,215.357 167.743,212.139 169.454 C 211.214 169.945,210.500 170.112,209.322 170.112 L 207.743 170.112 208.506 171.231 C 210.636 174.356,210.167 174.982,201.053 181.186 C 199.895 181.975,198.828 182.715,198.683 182.831 C 198.539 182.948,197.679 183.520,196.774 184.103 C 195.869 184.686,195.128 185.314,195.128 185.500 C 195.128 186.109,197.003 188.326,197.392 188.177 C 198.035 187.930,207.536 181.342,209.480 179.795 C 211.837 177.919,211.976 177.849,212.428 178.300 C 212.847 178.720,215.753 178.723,216.535 178.305 C 217.146 177.978,217.328 178.030,218.816 178.968 C 220.925 180.296,222.012 180.920,224.095 181.998 L 225.806 182.883 225.988 184.532 C 226.748 191.419,236.119 191.057,236.057 184.143 L 236.038 181.979 239.880 178.218 C 243.624 174.554,244.964 173.346,248.199 170.726 C 249.063 170.026,249.921 169.251,250.106 169.003 C 250.385 168.630,250.725 168.579,252.096 168.707 C 253.977 168.883,254.880 168.546,256.562 167.038 C 257.379 166.305,257.715 166.166,258.405 166.274 C 258.870 166.347,261.229 166.482,263.648 166.575 C 267.911 166.738,268.059 166.763,268.460 167.374 C 268.824 167.930,269.072 168.005,270.538 168.005 C 274.117 168.005,274.354 167.633,276.527 158.625 C 276.676 158.007,277.296 156.928,277.964 156.123 C 278.610 155.344,279.231 154.589,279.345 154.444 C 279.459 154.299,280.138 153.203,280.853 152.008 L 282.154 149.835 284.607 149.835 C 286.878 149.835,288.827 150.040,292.166 150.629 C 294.950 151.120,296.389 151.465,296.629 151.699 C 296.767 151.833,297.060 151.942,297.281 151.942 C 299.544 151.942,303.783 155.527,305.377 158.789 C 307.117 162.350,307.834 163.992,307.834 164.418 C 307.834 164.636,307.942 164.881,308.075 164.963 C 308.207 165.045,308.395 165.584,308.492 166.162 C 308.590 166.740,308.764 167.271,308.880 167.342 C 308.995 167.413,309.171 168.155,309.271 168.989 C 309.485 170.768,310.055 172.984,310.672 174.430 C 311.105 175.447,311.103 175.461,310.462 175.879 C 309.259 176.661,307.969 177.959,307.483 178.874 L 307.000 179.784 308.009 180.832 C 311.379 184.331,317.817 186.517,319.830 184.846 C 320.331 184.431,320.268 180.268,319.722 177.617 C 319.278 175.468,318.866 173.035,318.494 170.375 C 317.903 166.159,317.925 166.209,314.106 160.369 C 312.381 157.731,310.874 154.562,310.350 152.469 C 309.697 149.864,309.043 148.751,307.085 146.911 C 304.712 144.682,304.414 144.475,301.646 143.143 C 298.430 141.595,297.857 141.356,294.668 140.229 C 293.147 139.692,291.577 139.131,291.178 138.982 C 290.436 138.705,290.261 138.284,290.704 137.841 C 291.221 137.323,291.557 134.232,291.762 128.111 C 291.878 124.635,292.100 121.435,292.254 121.001 C 292.408 120.566,292.792 119.381,293.105 118.367 C 293.800 116.123,295.480 112.685,297.096 110.204 C 298.962 107.339,298.718 107.444,302.567 107.857 C 305.879 108.212,310.613 107.878,312.179 107.178 C 312.469 107.049,313.092 106.867,313.564 106.775 C 314.329 106.624,315.347 106.228,316.524 105.622 C 317.003 105.375,317.940 105.753,319.165 106.689 C 321.262 108.291,322.907 108.543,326.226 107.770 C 329.271 107.062,329.691 106.516,329.691 103.257 L 329.691 100.695 328.204 98.866 C 327.387 97.860,323.851 94.134,320.346 90.586 C 314.557 84.725,313.880 83.945,312.950 82.066 C 311.415 78.964,309.881 78.063,307.176 78.675 C 305.894 78.964,305.464 78.846,305.464 78.203 C 305.464 77.934,305.346 77.641,305.201 77.551 C 305.056 77.462,304.937 77.186,304.937 76.939 C 304.937 75.155,302.842 73.271,302.323 74.589 M256.247 91.968 C 260.810 101.041,260.401 100.843,273.140 100.159 C 275.686 100.022,276.234 100.057,276.233 100.358 C 276.232 100.692,275.751 100.927,272.745 102.063 C 269.936 103.124,269.437 103.330,268.466 103.827 C 265.339 105.429,264.920 105.898,264.790 107.947 C 264.629 110.467,264.258 111.381,260.178 119.289 C 259.169 121.244,258.340 122.992,258.336 123.173 C 258.331 123.354,258.209 123.502,258.065 123.502 C 257.920 123.502,257.801 123.633,257.801 123.792 C 257.801 123.951,257.233 125.047,256.538 126.227 C 255.843 127.408,255.190 128.552,255.087 128.769 C 254.983 128.986,254.664 129.519,254.378 129.954 C 254.091 130.388,253.772 130.922,253.669 131.139 C 253.421 131.659,251.991 133.780,251.493 134.365 C 250.726 135.265,250.076 134.959,250.264 133.786 C 250.395 132.964,250.336 132.693,249.980 132.494 C 249.490 132.220,249.858 130.876,250.422 130.876 C 250.570 130.876,250.691 130.745,250.691 130.584 C 250.691 130.424,251.047 129.844,251.481 129.296 C 251.916 128.747,252.271 128.232,252.271 128.152 C 252.271 128.071,252.622 127.486,253.051 126.850 C 253.479 126.215,254.821 123.750,256.032 121.373 C 257.243 118.996,258.614 116.399,259.079 115.602 C 262.532 109.687,262.482 108.733,258.591 106.351 C 257.794 105.863,256.151 104.753,254.939 103.884 C 253.727 103.015,252.233 101.949,251.618 101.514 C 250.105 100.446,248.056 98.604,248.065 98.321 C 248.068 98.194,248.572 97.860,249.184 97.579 C 250.925 96.777,253.872 93.684,254.782 91.705 C 255.300 90.576,255.571 90.625,256.247 91.968 M308.097 102.670 C 310.337 102.952,311.230 103.151,313.832 103.945 C 315.579 104.478,315.484 104.763,313.350 105.386 C 312.416 105.659,311.178 106.025,310.599 106.200 C 309.456 106.545,300.642 106.655,300.315 106.328 C 300.070 106.083,300.634 105.275,302.270 103.527 C 303.753 101.942,303.092 102.040,308.097 102.670 M326.198 128.442 C 324.578 129.375,323.913 130.495,323.714 132.626 C 323.589 133.965,323.443 134.383,323.019 134.610 C 322.724 134.768,322.356 135.005,322.202 135.137 C 322.048 135.269,321.261 135.816,320.452 136.352 C 316.510 138.966,312.674 141.561,312.397 141.800 C 312.228 141.947,311.077 142.778,309.840 143.647 C 307.566 145.244,307.370 145.573,308.123 146.524 C 308.247 146.680,308.633 147.159,308.982 147.588 L 309.616 148.369 310.766 147.589 C 311.398 147.160,311.975 146.744,312.047 146.665 C 312.120 146.586,313.957 145.342,316.129 143.901 C 318.302 142.459,320.138 141.217,320.211 141.140 C 321.148 140.141,326.428 137.000,326.819 137.209 C 328.157 137.925,331.250 137.312,332.405 136.103 C 336.380 131.941,331.208 125.557,326.198 128.442 M143.310 139.763 C 143.082 140.320,143.089 151.808,143.332 176.959 L 143.513 195.787 149.746 195.857 L 155.979 195.928 155.804 179.290 C 155.707 170.139,155.629 157.398,155.629 150.977 L 155.629 139.302 149.564 139.302 C 144.035 139.302,143.482 139.343,143.310 139.763 M293.971 157.252 C 290.940 160.300,283.853 166.304,280.967 168.269 C 280.648 168.486,280.134 168.852,279.825 169.082 C 279.516 169.312,277.841 170.463,276.103 171.639 L 272.943 173.778 271.798 173.518 C 265.864 172.168,262.774 180.598,268.327 182.987 C 272.096 184.608,275.911 181.761,275.370 177.730 C 275.227 176.667,275.237 176.653,276.718 175.725 C 277.538 175.211,278.660 174.479,279.210 174.097 C 279.761 173.716,280.409 173.285,280.651 173.140 C 281.049 172.902,281.919 172.290,284.019 170.770 C 284.419 170.481,285.172 169.917,285.691 169.518 C 286.211 169.119,286.987 168.526,287.416 168.201 C 289.084 166.938,294.290 162.257,297.814 158.851 L 300.066 156.674 299.205 155.931 C 297.234 154.228,296.892 154.314,293.971 157.252 M120.341 172.877 C 120.340 182.291,120.263 191.327,120.169 192.956 L 119.999 195.918 125.926 195.918 L 131.854 195.918 132.150 190.191 C 132.313 187.041,132.499 178.039,132.564 170.187 L 132.681 155.910 126.511 155.835 L 120.342 155.760 120.341 172.877 " stroke="none" fill="#131313" fill-rule="evenodd"></path><path id="path1" d="M0.000 131.666 L 0.000 263.331 200.000 263.331 L 400.000 263.331 400.000 131.666 L 400.000 0.000 200.000 0.000 L 0.000 0.000 0.000 131.666 M94.379 4.741 C 94.523 4.885,94.802 5.003,94.998 5.003 C 98.311 5.003,103.752 11.353,103.752 15.220 C 103.752 15.864,104.115 16.013,106.781 16.460 C 109.467 16.910,111.182 17.273,112.837 17.743 C 113.562 17.949,114.865 18.314,115.734 18.554 C 116.603 18.794,117.496 19.087,117.718 19.205 C 117.940 19.323,118.501 19.503,118.965 19.605 C 119.430 19.707,119.877 19.900,119.960 20.033 C 120.042 20.167,120.287 20.276,120.504 20.276 C 120.721 20.276,121.454 20.522,122.134 20.822 C 122.814 21.122,123.785 21.546,124.292 21.764 C 126.611 22.762,131.455 25.358,132.635 26.236 C 133.097 26.579,133.552 26.860,133.647 26.860 C 133.743 26.860,134.092 27.067,134.424 27.321 C 134.756 27.574,135.290 27.959,135.610 28.176 C 139.731 30.975,145.319 36.113,148.066 39.631 C 148.179 39.776,148.633 40.309,149.074 40.816 C 150.027 41.911,153.607 47.242,154.644 49.111 C 155.579 50.798,157.996 55.764,158.008 56.023 C 158.013 56.132,158.246 56.695,158.525 57.275 C 158.805 57.854,159.038 58.512,159.043 58.736 C 159.048 58.961,159.152 59.257,159.275 59.394 C 159.517 59.665,160.963 63.985,161.387 65.701 C 162.315 69.456,162.976 72.513,163.134 73.773 L 163.316 75.233 162.172 75.891 C 159.758 77.279,156.620 78.785,153.420 80.092 C 152.680 80.395,151.700 80.806,151.244 81.006 C 150.788 81.206,150.331 81.369,150.230 81.369 C 150.129 81.369,149.673 81.538,149.217 81.744 C 148.761 81.950,147.617 82.377,146.675 82.693 C 145.734 83.009,144.727 83.366,144.437 83.487 C 144.147 83.608,143.081 83.963,142.067 84.276 C 141.053 84.590,139.987 84.944,139.697 85.064 C 139.408 85.184,138.282 85.534,137.196 85.841 C 136.109 86.149,135.038 86.498,134.815 86.617 C 134.593 86.737,133.882 86.921,133.235 87.028 C 132.589 87.135,131.942 87.314,131.797 87.425 C 131.652 87.537,130.941 87.770,130.217 87.944 C 127.547 88.583,126.258 88.919,125.872 89.075 C 125.655 89.163,124.885 89.368,124.161 89.530 C 123.436 89.692,122.133 90.004,121.264 90.223 C 116.470 91.431,111.650 92.459,106.517 93.368 C 105.214 93.599,104.029 93.906,103.884 94.049 C 103.710 94.222,103.844 94.264,104.279 94.174 C 104.641 94.099,107.426 93.971,110.467 93.889 C 113.509 93.806,117.182 93.621,118.631 93.478 C 120.079 93.334,122.627 93.100,124.292 92.959 C 132.841 92.233,142.590 90.188,151.284 87.296 C 152.442 86.911,153.764 86.427,154.220 86.221 C 154.677 86.015,155.176 85.846,155.330 85.846 C 155.485 85.846,156.000 85.678,156.476 85.473 C 156.951 85.268,157.992 84.840,158.789 84.521 C 162.193 83.158,169.015 79.777,170.040 78.944 C 170.434 78.624,171.428 78.745,179.987 80.152 C 183.834 80.785,188.518 81.835,188.940 82.159 C 189.085 82.271,189.597 82.446,190.077 82.549 C 190.557 82.652,191.268 82.901,191.657 83.104 C 192.046 83.307,192.512 83.473,192.693 83.474 C 192.874 83.475,193.022 83.594,193.022 83.739 C 193.022 83.884,193.145 84.003,193.296 84.003 C 194.317 84.003,196.182 86.322,196.182 87.593 C 196.182 90.628,190.686 95.037,182.488 98.576 C 181.982 98.795,181.010 99.220,180.330 99.520 C 179.650 99.820,178.983 100.066,178.846 100.066 C 178.710 100.066,178.259 100.243,177.844 100.459 C 177.430 100.676,176.890 100.853,176.645 100.854 C 176.400 100.855,176.135 100.961,176.055 101.089 C 175.976 101.218,175.480 101.404,174.954 101.502 C 174.428 101.601,173.804 101.786,173.569 101.913 C 173.333 102.041,172.251 102.391,171.165 102.692 C 170.079 102.994,168.829 103.355,168.386 103.495 C 166.928 103.956,162.082 104.958,156.945 105.861 C 156.149 106.001,154.257 106.242,152.741 106.398 C 151.225 106.553,149.566 106.730,149.055 106.790 C 141.673 107.657,126.271 107.588,115.399 106.638 C 111.285 106.278,111.262 106.282,111.625 107.235 C 111.994 108.206,112.267 133.239,111.952 137.196 C 111.630 141.223,111.180 144.563,110.885 145.106 C 110.763 145.328,110.580 146.009,110.477 146.618 C 110.374 147.228,110.182 147.793,110.050 147.875 C 109.917 147.956,109.809 148.200,109.809 148.417 C 109.809 150.317,105.783 155.824,103.094 157.601 C 98.714 160.497,92.790 161.113,86.373 159.338 C 83.790 158.623,81.474 157.876,81.251 157.686 C 81.113 157.568,80.840 157.472,80.644 157.472 C 79.119 157.472,66.806 150.616,66.403 149.543 C 66.355 149.414,66.192 149.309,66.040 149.309 C 65.889 149.309,65.325 148.924,64.787 148.453 C 64.250 147.982,63.169 147.065,62.385 146.416 C 56.937 141.896,50.326 133.797,45.447 125.666 C 44.160 123.522,44.280 123.196,46.280 123.405 C 48.092 123.595,53.772 123.091,55.816 122.560 C 58.396 121.889,58.453 121.915,59.729 124.358 C 60.934 126.664,61.406 127.502,61.619 127.716 C 61.999 128.095,62.936 129.572,62.936 129.790 C 62.936 129.928,63.026 130.081,63.135 130.129 C 63.244 130.178,63.985 131.047,64.781 132.061 C 66.414 134.142,69.849 137.651,71.626 139.055 C 73.162 140.268,75.276 141.672,75.567 141.672 C 75.693 141.672,75.835 141.761,75.883 141.870 C 75.932 141.978,76.741 142.447,77.683 142.912 C 85.287 146.664,93.312 146.091,96.332 141.580 C 98.431 138.443,98.679 136.676,98.871 123.498 C 98.958 117.490,99.164 111.240,99.327 109.611 C 99.662 106.277,99.639 106.202,98.433 106.643 C 97.955 106.818,96.942 107.128,96.182 107.332 C 95.421 107.536,94.148 107.882,93.352 108.103 C 89.366 109.205,86.953 109.826,84.661 110.339 C 83.937 110.501,83.167 110.707,82.949 110.796 C 82.732 110.886,81.873 111.115,81.040 111.306 C 80.207 111.496,78.845 111.808,78.012 111.999 C 77.179 112.190,76.320 112.419,76.103 112.507 C 75.885 112.596,74.997 112.803,74.128 112.967 C 70.208 113.705,69.098 113.936,68.729 114.086 C 68.512 114.175,67.505 114.380,66.491 114.542 C 65.477 114.703,63.700 115.000,62.541 115.201 C 61.382 115.402,59.487 115.699,58.328 115.860 C 57.169 116.022,55.629 116.271,54.905 116.414 C 50.243 117.338,36.900 117.762,34.770 117.054 C 32.313 116.238,29.893 113.172,29.228 110.031 C 29.064 109.257,28.764 107.854,28.563 106.912 C 28.361 105.971,28.069 104.549,27.915 103.752 C 27.760 102.956,27.518 101.771,27.376 101.119 C 27.106 99.875,26.803 97.303,26.306 92.034 C 25.978 88.561,26.133 80.024,26.565 77.683 C 26.712 76.886,26.954 75.346,27.102 74.259 C 27.539 71.057,28.604 66.172,28.967 65.701 C 29.079 65.556,29.253 64.935,29.355 64.320 C 29.456 63.705,29.634 63.144,29.749 63.072 C 29.865 63.001,30.037 62.531,30.131 62.029 C 30.226 61.526,30.475 60.784,30.686 60.380 C 30.897 59.975,31.071 59.495,31.071 59.312 C 31.072 59.129,31.187 58.773,31.327 58.522 C 31.785 57.698,32.653 55.598,32.653 55.314 C 32.653 55.161,32.772 55.036,32.916 55.036 C 33.061 55.036,33.180 54.888,33.181 54.707 C 33.182 54.335,34.536 51.651,35.776 49.560 C 36.231 48.794,36.603 48.120,36.603 48.063 C 36.603 47.533,42.285 39.965,44.481 37.571 C 48.545 33.139,54.362 28.140,58.073 25.887 C 62.770 23.037,64.552 22.078,67.544 20.795 C 67.834 20.670,68.627 20.325,69.307 20.028 C 69.987 19.730,70.721 19.487,70.938 19.487 C 71.154 19.487,71.399 19.378,71.480 19.246 C 71.562 19.114,72.102 18.926,72.679 18.828 C 73.257 18.731,73.789 18.556,73.860 18.440 C 73.932 18.324,74.436 18.148,74.981 18.048 C 75.525 17.948,76.517 17.689,77.184 17.473 L 78.397 17.081 78.558 15.003 C 78.646 13.860,78.823 12.713,78.951 12.453 C 79.080 12.194,79.468 11.415,79.815 10.723 C 81.008 8.341,85.135 5.003,86.889 5.003 C 87.126 5.003,87.433 4.894,87.571 4.760 C 88.150 4.197,93.819 4.181,94.379 4.741 M361.857 35.667 C 366.211 36.590,371.560 41.479,371.560 44.537 C 371.560 44.750,371.708 45.072,371.889 45.253 C 372.340 45.704,372.377 215.387,371.926 215.957 C 371.766 216.160,371.565 216.695,371.479 217.146 C 370.967 219.856,367.706 223.411,364.187 225.096 C 361.295 226.481,361.949 226.465,309.630 226.465 L 260.904 226.465 261.064 227.452 C 261.212 228.366,261.401 229.697,262.397 236.866 C 262.868 240.252,263.552 244.789,263.757 245.885 L 263.918 246.741 275.321 246.741 C 287.233 246.741,288.953 246.881,290.635 247.982 C 293.257 249.701,293.894 258.109,291.589 260.596 L 291.006 261.224 230.328 261.224 C 182.093 261.224,169.599 261.157,169.402 260.895 C 168.698 259.962,168.401 258.044,168.411 254.510 C 168.423 250.157,168.711 249.252,170.444 248.125 L 171.560 247.400 184.332 247.268 L 197.103 247.136 197.433 244.766 C 198.067 240.204,199.152 232.967,199.585 230.415 C 199.719 229.618,199.839 228.414,199.849 227.739 L 199.868 226.512 194.536 226.419 C 191.603 226.368,171.843 226.350,150.625 226.378 C 105.635 226.438,105.846 226.446,102.216 224.659 C 100.902 224.012,98.400 221.652,97.348 220.067 C 95.254 216.911,95.358 218.306,95.311 192.740 L 95.270 169.980 102.144 169.910 C 105.925 169.871,109.047 169.871,109.080 169.910 C 109.114 169.949,109.203 177.920,109.278 187.623 L 109.414 205.267 233.904 205.333 L 358.394 205.399 358.394 127.674 L 358.394 49.949 310.007 50.122 C 283.394 50.218,240.201 50.374,214.022 50.470 C 175.119 50.612,166.425 50.581,166.425 50.302 C 166.425 48.910,160.834 39.404,158.239 36.384 C 158.056 36.171,158.032 35.937,158.178 35.792 C 158.323 35.647,191.519 35.524,241.092 35.484 C 286.563 35.447,331.942 35.390,341.935 35.356 C 356.743 35.307,360.429 35.364,361.857 35.667 M269.337 58.233 C 271.635 58.791,273.938 61.127,274.634 63.607 C 275.019 64.977,275.366 65.388,276.629 65.969 C 278.511 66.834,279.131 67.386,279.131 68.197 C 279.131 69.598,277.619 70.452,274.812 70.637 C 273.792 70.704,273.782 70.715,273.259 72.416 C 272.970 73.357,272.648 74.187,272.544 74.259 C 272.440 74.332,272.268 74.669,272.162 75.010 C 271.821 76.101,269.002 78.686,267.934 78.886 C 263.963 79.631,258.591 75.716,258.591 72.077 C 258.591 71.144,258.457 70.766,257.995 70.394 C 255.228 68.167,255.269 64.151,258.088 61.333 C 258.944 60.477,259.822 59.776,260.039 59.776 C 260.257 59.776,260.434 59.679,260.434 59.561 C 260.434 58.606,266.901 57.642,269.337 58.233 M303.673 74.063 C 304.474 74.847,304.909 75.647,305.359 77.164 L 305.731 78.416 308.080 78.379 C 311.057 78.331,311.480 78.618,313.093 81.772 C 314.210 83.958,314.678 84.498,320.505 90.337 C 323.926 93.765,327.446 97.484,328.328 98.601 L 329.930 100.634 329.850 103.369 C 329.731 107.440,328.902 108.081,323.747 108.091 L 320.567 108.097 319.084 106.978 C 317.372 105.687,317.379 105.688,315.467 106.388 C 311.089 107.989,310.419 108.093,304.468 108.095 L 298.864 108.097 297.540 110.072 C 296.811 111.159,295.679 113.173,295.024 114.549 C 294.369 115.925,293.738 117.234,293.623 117.457 C 292.704 119.244,292.228 122.523,292.018 128.506 C 291.807 134.539,291.555 136.913,291.018 137.916 C 290.727 138.460,291.349 139.037,292.228 139.040 C 292.484 139.041,293.010 139.208,293.399 139.411 C 293.788 139.613,294.468 139.859,294.910 139.956 C 295.353 140.053,295.782 140.242,295.865 140.376 C 295.948 140.509,296.193 140.619,296.409 140.619 C 296.626 140.619,297.300 140.835,297.908 141.099 C 298.515 141.363,299.546 141.804,300.197 142.079 C 300.849 142.354,301.951 142.908,302.645 143.310 C 303.339 143.713,304.011 144.042,304.137 144.042 C 304.263 144.042,304.406 144.131,304.455 144.240 C 304.503 144.348,305.052 144.783,305.674 145.206 C 308.133 146.876,310.710 150.755,310.727 152.812 C 310.731 153.263,311.273 154.633,312.260 156.682 C 312.504 157.189,313.581 158.966,314.653 160.632 C 318.135 166.043,318.251 166.343,318.917 171.679 C 319.070 172.903,319.292 174.088,319.410 174.312 C 319.527 174.537,319.705 175.609,319.804 176.695 C 319.903 177.781,320.085 179.026,320.209 179.460 C 320.799 181.530,320.797 184.182,320.205 184.865 C 319.577 185.589,315.745 185.835,314.391 185.238 C 312.531 184.416,309.677 182.893,309.677 182.722 C 309.677 182.613,309.445 182.450,309.162 182.360 C 306.318 181.458,306.778 177.908,310.013 175.788 L 310.698 175.340 310.221 173.977 C 309.432 171.723,309.193 170.834,309.007 169.454 C 308.779 167.761,307.536 164.029,306.374 161.546 C 305.874 160.478,305.464 159.479,305.464 159.328 C 305.464 159.176,305.358 159.052,305.229 159.052 C 305.100 159.052,304.913 158.726,304.814 158.328 C 303.724 153.959,295.904 150.674,285.448 150.192 L 282.153 150.040 281.672 151.057 C 281.023 152.428,279.121 155.259,277.986 156.546 C 277.477 157.123,276.982 158.010,276.887 158.519 C 276.791 159.027,276.635 159.562,276.540 159.708 C 276.444 159.854,276.225 160.625,276.054 161.422 C 275.882 162.219,275.636 163.346,275.508 163.926 C 275.122 165.676,274.364 167.117,273.592 167.574 C 272.482 168.229,268.574 168.187,268.155 167.515 C 267.899 167.106,267.474 167.016,265.592 166.975 C 264.351 166.947,262.653 166.813,261.819 166.677 C 258.784 166.180,257.758 166.318,256.602 167.378 C 255.259 168.609,254.724 168.795,252.526 168.795 C 250.834 168.795,250.648 168.854,249.820 169.651 C 249.332 170.122,247.580 171.631,245.927 173.005 C 241.396 176.771,235.915 182.279,236.219 182.760 C 236.611 183.380,236.509 185.600,236.046 186.517 C 233.380 191.805,225.675 190.122,225.675 184.252 L 225.675 183.101 223.502 182.007 C 222.307 181.405,220.394 180.305,219.251 179.563 L 217.172 178.214 216.279 178.640 C 215.158 179.174,214.162 179.179,212.909 178.656 C 211.938 178.250,211.918 178.254,210.797 179.116 C 210.174 179.595,209.401 180.165,209.077 180.382 C 208.754 180.599,208.036 181.132,207.481 181.567 C 205.619 183.026,204.106 184.068,203.851 184.068 C 203.712 184.068,203.559 184.177,203.511 184.310 C 203.407 184.596,197.576 188.545,197.258 188.545 C 196.794 188.545,194.865 186.160,194.865 185.588 C 194.865 185.147,195.264 184.732,196.379 184.016 C 197.212 183.482,198.974 182.297,200.294 181.384 C 201.614 180.471,203.552 179.131,204.599 178.407 C 205.647 177.683,206.641 176.970,206.807 176.823 C 206.974 176.676,207.614 176.163,208.229 175.682 C 209.648 174.573,209.737 173.537,208.558 171.824 C 207.394 170.132,207.484 169.849,209.184 169.849 C 210.121 169.849,211.102 169.626,212.088 169.190 C 215.486 167.687,219.244 169.325,219.742 172.526 C 220.037 174.415,220.095 174.498,222.139 175.884 C 223.223 176.620,224.164 177.222,224.230 177.222 C 224.295 177.222,225.151 177.723,226.131 178.336 L 227.913 179.451 230.382 179.375 L 232.850 179.299 235.385 176.773 C 238.271 173.897,242.069 170.445,244.872 168.150 C 247.377 166.099,247.531 165.850,247.531 163.860 C 247.531 160.252,250.876 157.722,254.456 158.620 C 255.223 158.813,257.538 160.812,257.538 161.282 C 257.538 161.819,260.987 162.447,264.558 162.560 L 267.760 162.661 268.204 161.186 C 268.698 159.541,269.920 156.443,270.552 155.234 C 270.779 154.799,270.965 154.294,270.966 154.111 C 270.967 153.928,271.079 153.572,271.214 153.321 C 271.350 153.069,271.639 152.474,271.858 151.997 C 272.076 151.520,272.503 150.728,272.807 150.237 L 273.359 149.344 272.097 149.186 C 271.404 149.099,270.194 148.914,269.410 148.774 C 268.625 148.633,265.663 148.509,262.826 148.497 C 257.688 148.474,256.723 148.391,252.600 147.612 C 251.406 147.387,249.510 147.038,248.387 146.837 C 246.307 146.464,245.221 146.146,243.581 145.431 C 241.485 144.517,236.046 141.807,235.651 141.481 C 235.252 141.150,233.547 141.744,233.591 142.199 C 233.605 142.354,236.594 144.549,237.456 145.038 C 238.034 145.366,238.289 146.149,237.818 146.149 C 237.690 146.149,237.503 146.804,237.403 147.606 C 237.303 148.407,237.053 149.384,236.848 149.778 C 236.643 150.172,236.474 150.618,236.473 150.769 C 236.469 151.426,234.423 153.006,233.049 153.414 C 231.368 153.914,229.663 153.820,225.806 153.018 C 221.467 152.116,218.652 152.299,213.882 153.795 C 212.088 154.358,208.138 156.310,207.505 156.946 C 207.433 157.019,206.850 157.434,206.210 157.868 C 203.204 159.907,199.548 164.095,198.131 167.122 C 197.313 168.868,196.907 170.026,195.789 173.799 C 194.141 179.361,190.505 183.471,184.727 186.304 C 180.161 188.542,178.804 188.895,177.332 188.224 C 176.208 187.712,175.092 184.439,175.876 183.955 C 176.425 183.615,176.445 182.457,175.914 181.781 C 173.966 179.305,178.678 174.773,181.065 176.827 C 181.486 177.188,181.901 177.485,181.987 177.485 C 182.154 177.485,184.021 175.454,184.463 174.790 C 184.608 174.573,185.230 173.660,185.846 172.762 C 186.461 171.863,186.965 171.028,186.965 170.905 C 186.965 170.783,187.058 170.643,187.171 170.595 C 187.689 170.374,190.377 164.398,191.357 161.290 C 192.398 157.986,193.562 154.494,193.814 153.917 C 193.941 153.627,194.116 153.024,194.203 152.577 C 194.412 151.503,195.881 150.148,198.157 148.929 C 201.853 146.950,203.325 143.512,201.986 139.989 C 200.927 137.204,200.818 127.890,201.816 125.501 C 202.521 123.814,199.306 126.083,198.522 127.825 C 198.386 128.127,197.864 129.085,197.361 129.954 C 196.859 130.823,196.181 132.058,195.854 132.698 C 195.167 134.045,191.564 137.986,191.019 137.986 C 190.817 137.986,190.652 138.081,190.652 138.198 C 190.652 139.548,181.518 140.275,180.263 139.025 C 180.126 138.888,179.770 138.771,179.473 138.767 C 179.176 138.762,178.460 138.529,177.880 138.249 C 177.301 137.969,176.732 137.736,176.617 137.731 C 174.951 137.660,168.795 131.523,168.795 129.934 C 168.795 129.272,170.340 129.220,171.846 129.831 C 173.413 130.468,180.174 130.524,180.955 129.907 C 181.147 129.755,181.650 129.549,182.073 129.447 C 184.232 128.930,188.365 125.385,191.504 121.359 C 194.009 118.146,196.266 116.369,198.815 115.601 C 200.341 115.142,207.029 114.943,207.762 115.336 C 208.204 115.572,208.406 115.516,208.890 115.021 C 210.202 113.679,215.025 110.862,216.010 110.862 C 216.221 110.862,216.853 110.662,217.414 110.418 C 218.909 109.765,225.461 109.770,227.612 110.424 C 229.486 110.994,229.445 111.032,228.683 109.414 C 227.763 107.459,227.815 106.557,228.835 106.781 C 229.509 106.929,229.625 106.876,229.625 106.422 C 229.625 105.503,230.141 105.519,231.018 106.464 C 232.308 107.855,238.044 110.230,243.581 111.664 C 248.386 112.909,245.124 109.588,238.093 106.076 C 230.067 102.068,228.547 99.204,231.006 92.730 C 232.590 88.560,239.020 81.768,245.293 77.640 C 251.801 73.356,257.592 74.569,260.321 80.786 C 260.684 81.614,261.080 82.473,261.201 82.695 C 261.322 82.917,261.506 83.487,261.611 83.963 C 261.715 84.439,261.967 85.146,262.169 85.535 C 262.372 85.923,262.539 86.391,262.540 86.574 C 262.540 86.757,262.654 87.112,262.791 87.364 C 262.929 87.615,263.525 88.828,264.115 90.059 C 265.887 93.755,265.480 93.565,273.733 94.541 C 274.891 94.678,276.076 94.892,276.366 95.016 C 277.061 95.314,279.504 96.106,279.516 96.038 C 279.522 96.008,279.726 95.602,279.971 95.134 C 280.228 94.644,280.312 94.220,280.169 94.131 C 278.996 93.407,284.640 88.061,289.796 85.012 C 292.171 83.609,298.023 80.849,298.657 80.834 C 299.799 80.807,300.166 79.822,299.454 78.696 C 297.074 74.929,297.253 74.142,300.097 75.868 C 301.237 76.559,301.388 76.509,301.743 75.324 C 302.274 73.552,302.800 73.208,303.673 74.063 M254.760 92.344 C 253.389 94.683,251.272 96.864,249.496 97.767 L 248.255 98.397 249.975 99.824 C 252.122 101.605,256.332 104.622,258.482 105.921 C 260.909 107.388,261.751 108.463,261.751 110.095 C 261.751 111.316,260.930 113.466,260.369 113.715 C 260.260 113.763,260.171 113.919,260.171 114.062 C 260.171 114.204,259.604 115.290,258.910 116.475 C 258.217 117.661,257.075 119.816,256.373 121.264 C 255.299 123.481,252.123 129.066,251.431 129.954 C 251.318 130.099,250.913 130.608,250.530 131.085 L 249.834 131.953 250.684 132.713 C 251.152 133.130,251.671 133.416,251.837 133.348 C 252.172 133.212,256.485 126.068,256.485 125.651 C 256.485 125.507,256.573 125.350,256.682 125.302 C 256.791 125.253,257.902 123.199,259.151 120.737 C 260.400 118.275,261.897 115.343,262.478 114.222 C 263.864 111.542,264.361 109.960,264.469 107.883 C 264.523 106.831,264.704 106.039,264.939 105.820 C 265.600 105.204,266.986 104.279,267.248 104.279 C 267.387 104.279,267.540 104.190,267.588 104.082 C 267.637 103.973,268.269 103.610,268.993 103.275 C 269.717 102.940,270.491 102.570,270.713 102.453 C 270.935 102.335,271.528 102.151,272.030 102.044 C 272.532 101.936,273.061 101.764,273.206 101.661 C 273.351 101.558,274.042 101.261,274.743 101.003 C 276.821 100.234,275.822 100.071,271.626 100.494 C 269.454 100.713,266.395 100.854,264.828 100.808 L 261.980 100.724 260.747 99.371 C 259.323 97.810,258.855 97.240,258.855 97.072 C 258.855 97.006,258.440 96.322,257.933 95.552 C 257.426 94.783,257.011 94.012,257.011 93.840 C 257.011 93.667,256.922 93.487,256.814 93.439 C 256.705 93.390,256.365 92.840,256.058 92.217 L 255.499 91.082 254.760 92.344 M302.059 104.190 L 300.407 105.991 301.553 106.191 C 304.828 106.764,307.164 106.672,310.797 105.826 C 316.548 104.486,315.857 104.115,304.653 102.523 C 303.764 102.397,303.617 102.491,302.059 104.190 M331.438 128.110 C 335.110 130.515,334.968 134.861,331.139 137.315 C 330.245 137.887,327.349 138.029,326.748 137.530 C 326.393 137.235,326.325 137.275,321.571 140.568 C 320.798 141.103,319.888 141.718,319.548 141.935 C 318.189 142.804,311.907 147.055,311.784 147.190 C 311.392 147.618,309.912 148.519,309.600 148.519 C 308.708 148.519,306.894 145.048,307.637 144.761 C 307.938 144.645,314.465 140.149,315.076 139.638 C 315.221 139.516,315.813 139.128,316.392 138.776 C 316.972 138.423,317.564 138.040,317.709 137.924 C 318.795 137.059,320.474 135.879,320.618 135.879 C 320.714 135.879,321.242 135.523,321.791 135.089 C 322.339 134.654,322.919 134.299,323.079 134.299 C 323.254 134.299,323.371 133.766,323.371 132.974 C 323.371 128.846,328.157 125.960,331.438 128.110 M156.016 159.250 C 156.096 170.365,156.224 182.956,156.300 187.228 C 156.376 191.501,156.373 195.263,156.292 195.589 L 156.145 196.182 149.727 196.182 C 144.117 196.182,143.288 196.129,143.149 195.765 C 142.930 195.194,142.945 139.434,143.164 139.214 C 143.261 139.118,146.159 139.039,149.605 139.039 L 155.871 139.039 156.016 159.250 M299.093 155.537 L 300.554 156.472 297.150 159.805 C 292.848 164.018,289.885 166.661,287.074 168.795 C 286.597 169.157,285.830 169.778,285.368 170.174 C 284.907 170.570,284.449 170.895,284.351 170.898 C 284.252 170.900,284.015 171.053,283.824 171.237 C 283.492 171.558,279.337 174.428,278.396 174.988 C 278.148 175.135,277.413 175.604,276.761 176.030 C 276.109 176.456,275.543 176.823,275.503 176.845 C 275.463 176.867,275.552 177.207,275.702 177.601 C 276.322 179.233,274.049 183.278,272.511 183.278 C 272.259 183.278,271.979 183.397,271.889 183.542 C 271.598 184.014,269.307 183.809,268.087 183.202 C 262.609 180.477,265.295 172.511,271.487 173.121 L 273.223 173.293 276.770 170.839 C 281.114 167.834,282.121 167.123,282.291 166.946 C 282.363 166.870,283.252 166.163,284.266 165.376 C 287.831 162.606,290.557 160.208,293.454 157.294 C 296.769 153.959,296.672 153.989,299.093 155.537 M132.811 160.500 C 132.695 175.179,132.288 195.565,132.106 195.853 C 131.949 196.100,130.403 196.182,125.857 196.182 L 119.816 196.182 119.816 176.090 C 119.816 160.652,119.890 155.923,120.136 155.677 C 120.374 155.439,122.055 155.374,126.654 155.427 L 132.851 155.497 132.811 160.500 " stroke="none" fill="#fbfbf5" fill-rule="evenodd"></path><path id="path2" d="M89.993 4.404 C 90.464 4.462,91.234 4.462,91.705 4.404 C 92.176 4.345,91.791 4.298,90.849 4.298 C 89.908 4.298,89.523 4.345,89.993 4.404 M87.587 4.692 C 87.514 4.811,87.803 4.857,88.230 4.794 C 88.657 4.731,89.006 4.634,89.006 4.578 C 89.006 4.378,87.718 4.481,87.587 4.692 M92.693 4.579 C 92.693 4.636,93.099 4.730,93.596 4.788 C 94.093 4.846,94.441 4.799,94.370 4.685 C 94.243 4.479,92.693 4.381,92.693 4.579 M103.529 15.076 C 103.497 15.857,103.585 16.062,103.950 16.059 C 104.249 16.057,104.304 15.987,104.105 15.861 C 103.937 15.754,103.748 15.311,103.684 14.877 C 103.579 14.162,103.564 14.180,103.529 15.076 M106.781 16.583 C 107.284 16.806,108.963 16.956,108.734 16.758 C 108.673 16.706,108.091 16.593,107.439 16.506 C 106.648 16.402,106.429 16.427,106.781 16.583 M78.473 16.802 C 78.473 16.967,78.088 17.213,77.617 17.349 C 77.045 17.514,76.941 17.604,77.303 17.619 C 77.953 17.648,78.948 16.978,78.670 16.699 C 78.561 16.591,78.473 16.637,78.473 16.802 M136.647 29.062 C 136.998 29.494,137.986 30.147,137.986 29.947 C 137.986 29.897,137.600 29.574,137.130 29.229 C 136.600 28.841,136.416 28.778,136.647 29.062 M49.621 32.456 L 48.848 33.311 49.704 32.538 C 50.502 31.817,50.681 31.600,50.477 31.600 C 50.432 31.600,50.047 31.985,49.621 32.456 M140.092 31.682 C 140.092 31.727,140.477 32.113,140.948 32.538 L 141.804 33.311 141.030 32.456 C 140.309 31.658,140.092 31.479,140.092 31.682 M144.174 35.550 C 145.180 36.564,146.062 37.393,146.135 37.393 C 146.207 37.393,145.443 36.564,144.437 35.550 C 143.431 34.536,142.549 33.706,142.476 33.706 C 142.404 33.706,143.168 34.536,144.174 35.550 M329.625 35.484 C 332.992 35.525,338.502 35.525,341.870 35.484 C 345.237 35.442,342.482 35.408,335.747 35.408 C 329.013 35.408,326.257 35.442,329.625 35.484 M158.174 35.725 C 158.078 35.822,158.000 36.029,158.003 36.186 C 158.005 36.357,158.089 36.341,158.214 36.145 C 158.372 35.897,160.982 35.802,169.204 35.747 L 179.987 35.675 169.168 35.612 C 163.218 35.578,158.271 35.629,158.174 35.725 M44.766 37.261 C 44.127 37.913,43.663 38.446,43.735 38.446 C 43.807 38.446,44.390 37.913,45.030 37.261 C 45.669 36.610,46.133 36.076,46.061 36.076 C 45.989 36.076,45.406 36.610,44.766 37.261 M371.803 46.017 C 371.929 46.926,371.947 46.945,372.034 46.248 C 372.086 45.832,372.024 45.388,371.897 45.261 C 371.765 45.129,371.724 45.451,371.803 46.017 M372.217 130.481 C 372.217 176.392,372.247 195.135,372.284 172.131 C 372.321 149.128,372.321 111.563,372.284 88.655 C 372.247 65.747,372.217 84.569,372.217 130.481 M259.842 50.230 C 264.947 50.270,273.302 50.270,278.407 50.230 C 283.512 50.190,279.335 50.158,269.124 50.158 C 258.914 50.158,254.737 50.190,259.842 50.230 M183.739 50.494 C 193.334 50.532,209.036 50.532,218.631 50.494 C 228.226 50.455,220.375 50.424,201.185 50.424 C 181.995 50.424,174.144 50.455,183.739 50.494 M358.524 127.847 C 358.524 170.573,358.554 188.012,358.591 166.601 C 358.628 145.191,358.628 110.234,358.591 88.919 C 358.554 67.604,358.524 85.122,358.524 127.847 M257.916 61.422 L 257.143 62.278 257.999 61.504 C 258.469 61.079,258.855 60.694,258.855 60.649 C 258.855 60.445,258.637 60.624,257.916 61.422 M278.569 67.213 C 278.766 67.465,278.877 68.022,278.814 68.450 C 278.751 68.878,278.797 69.168,278.915 69.095 C 279.308 68.852,279.139 67.483,278.670 67.116 C 278.253 66.789,278.243 66.798,278.569 67.213 M28.087 68.664 C 27.761 69.865,27.655 70.683,27.873 70.309 C 28.133 69.865,28.485 68.203,28.319 68.203 C 28.260 68.203,28.156 68.410,28.087 68.664 M275.115 70.495 C 275.441 70.558,275.974 70.558,276.300 70.495 C 276.626 70.432,276.359 70.381,275.708 70.381 C 275.056 70.381,274.789 70.432,275.115 70.495 M162.520 71.231 C 162.516 71.521,162.614 71.995,162.739 72.284 C 163.027 72.955,163.027 72.263,162.739 71.363 C 162.569 70.834,162.526 70.808,162.520 71.231 M27.184 73.469 C 27.184 73.976,27.238 74.184,27.305 73.930 C 27.371 73.677,27.371 73.262,27.305 73.009 C 27.238 72.755,27.184 72.962,27.184 73.469 M297.564 75.429 C 297.564 75.638,297.701 75.893,297.868 75.996 C 298.066 76.119,298.100 76.068,297.966 75.851 C 297.846 75.656,297.912 75.421,298.123 75.287 C 298.410 75.106,298.389 75.057,298.025 75.053 C 297.772 75.051,297.564 75.220,297.564 75.429 M258.196 77.946 C 258.762 78.525,259.284 78.999,259.356 78.999 C 259.429 78.999,259.025 78.525,258.460 77.946 C 257.894 77.367,257.372 76.893,257.299 76.893 C 257.227 76.893,257.630 77.367,258.196 77.946 M268.904 78.204 C 267.809 78.815,267.615 79.001,268.243 78.836 C 268.688 78.719,270.219 77.682,269.914 77.704 C 269.842 77.709,269.387 77.934,268.904 78.204 M264.271 78.443 C 264.550 78.699,266.181 79.128,265.934 78.881 C 265.845 78.792,265.379 78.607,264.899 78.469 C 264.418 78.331,264.135 78.320,264.271 78.443 M26.412 79.789 C 26.412 80.586,26.461 80.912,26.522 80.513 C 26.582 80.115,26.582 79.463,26.522 79.065 C 26.461 78.667,26.412 78.993,26.412 79.789 M310.467 78.546 C 310.467 78.596,310.853 78.919,311.323 79.263 C 311.853 79.651,312.037 79.715,311.806 79.430 C 311.455 78.998,310.467 78.346,310.467 78.546 M170.014 78.944 C 169.943 79.059,170.322 79.111,170.855 79.061 C 172.483 78.907,172.675 78.799,171.378 78.767 C 170.699 78.750,170.085 78.830,170.014 78.944 M176.106 79.712 C 176.433 79.775,176.907 79.773,177.159 79.707 C 177.411 79.641,177.143 79.589,176.564 79.592 C 175.984 79.595,175.778 79.649,176.106 79.712 M180.930 80.410 C 180.991 80.461,181.455 80.580,181.962 80.673 C 182.610 80.792,182.766 80.765,182.488 80.583 C 182.131 80.349,180.669 80.186,180.930 80.410 M184.880 81.201 C 184.941 81.253,185.346 81.375,185.780 81.472 C 186.357 81.601,186.464 81.577,186.175 81.381 C 185.820 81.141,184.616 80.973,184.880 81.201 M26.154 82.949 C 26.154 83.891,26.202 84.276,26.260 83.805 C 26.319 83.334,26.319 82.564,26.260 82.093 C 26.202 81.623,26.154 82.008,26.154 82.949 M26.149 89.533 C 26.149 90.329,26.198 90.655,26.258 90.257 C 26.319 89.858,26.319 89.207,26.258 88.808 C 26.198 88.410,26.149 88.736,26.149 89.533 M127.452 88.491 C 127.164 88.687,127.270 88.711,127.847 88.582 C 128.816 88.365,129.026 88.215,128.352 88.220 C 128.074 88.222,127.670 88.344,127.452 88.491 M321.132 91.113 C 322.575 92.561,323.815 93.746,323.887 93.746 C 323.960 93.746,322.839 92.561,321.396 91.113 C 319.953 89.664,318.713 88.479,318.641 88.479 C 318.568 88.479,319.689 89.664,321.132 91.113 M282.152 90.915 L 280.316 92.824 282.225 90.988 C 283.998 89.282,284.255 89.006,284.061 89.006 C 284.021 89.006,283.162 89.865,282.152 90.915 M193.959 91.325 C 192.674 92.805,192.672 92.811,193.782 91.771 C 194.718 90.895,195.620 89.755,195.335 89.810 C 195.294 89.818,194.674 90.500,193.959 91.325 M118.815 90.582 C 118.337 90.696,117.871 90.862,117.781 90.953 C 117.558 91.176,119.318 90.834,119.816 90.558 C 120.287 90.296,119.992 90.304,118.815 90.582 M136.932 91.116 C 136.654 91.298,136.810 91.325,137.459 91.206 C 138.595 90.998,138.809 90.848,137.964 90.853 C 137.614 90.855,137.149 90.974,136.932 91.116 M26.417 92.693 C 26.417 93.634,26.465 94.019,26.524 93.548 C 26.582 93.078,26.582 92.307,26.524 91.837 C 26.465 91.366,26.417 91.751,26.417 92.693 M115.392 91.372 C 114.913 91.486,114.448 91.652,114.357 91.743 C 114.135 91.966,115.895 91.624,116.392 91.348 C 116.864 91.086,116.569 91.094,115.392 91.372 M132.719 91.899 C 132.450 92.071,132.660 92.099,133.377 91.989 C 134.679 91.790,134.901 91.638,133.882 91.643 C 133.460 91.645,132.936 91.761,132.719 91.899 M110.862 92.433 C 110.585 92.615,110.741 92.642,111.389 92.523 C 112.525 92.314,112.739 92.165,111.894 92.170 C 111.544 92.172,111.080 92.290,110.862 92.433 M127.321 92.690 C 126.993 92.829,127.341 92.858,128.242 92.766 C 129.039 92.685,129.740 92.576,129.800 92.524 C 130.027 92.328,127.825 92.476,127.321 92.690 M120.007 93.409 C 120.475 93.467,121.304 93.468,121.851 93.411 C 122.397 93.354,122.014 93.307,121.001 93.306 C 119.987 93.304,119.540 93.351,120.007 93.409 M103.550 94.060 C 103.654 94.372,108.978 94.403,109.282 94.094 C 109.355 94.020,108.151 94.001,106.608 94.050 C 105.065 94.100,103.857 94.052,103.924 93.943 C 103.992 93.835,103.912 93.746,103.746 93.746 C 103.581 93.746,103.492 93.887,103.550 94.060 M111.455 93.927 C 111.708 93.994,112.123 93.994,112.377 93.927 C 112.630 93.861,112.423 93.807,111.916 93.807 C 111.409 93.807,111.201 93.861,111.455 93.927 M252.271 95.300 C 251.619 95.986,250.731 96.812,250.296 97.136 C 249.862 97.460,249.743 97.611,250.033 97.473 C 250.777 97.117,253.019 95.106,253.339 94.509 C 253.710 93.816,253.619 93.883,252.271 95.300 M269.936 94.103 C 269.997 94.155,270.461 94.273,270.968 94.366 C 271.616 94.485,271.772 94.458,271.494 94.276 C 271.137 94.042,269.675 93.880,269.936 94.103 M229.960 97.169 C 229.960 97.821,230.011 98.088,230.074 97.762 C 230.137 97.436,230.137 96.903,230.074 96.577 C 230.011 96.251,229.960 96.517,229.960 97.169 M326.267 96.462 C 326.267 96.507,326.652 96.892,327.123 97.317 L 327.979 98.091 327.206 97.235 C 326.485 96.437,326.267 96.258,326.267 96.462 M27.045 99.013 C 27.127 99.809,27.238 100.510,27.290 100.571 C 27.475 100.782,27.332 98.875,27.114 98.223 C 26.972 97.798,26.948 98.078,27.045 99.013 M260.754 99.408 C 261.437 100.118,262.036 100.645,262.085 100.580 C 262.134 100.514,261.575 99.933,260.843 99.289 L 259.513 98.117 260.754 99.408 M273.404 100.247 C 273.657 100.314,274.072 100.314,274.325 100.247 C 274.579 100.181,274.371 100.127,273.864 100.127 C 273.357 100.127,273.150 100.181,273.404 100.247 M269.980 100.518 C 270.379 100.578,271.030 100.578,271.429 100.518 C 271.827 100.457,271.501 100.408,270.704 100.408 C 269.908 100.408,269.582 100.457,269.980 100.518 M302.683 103.292 L 301.909 104.147 302.765 103.374 C 303.563 102.653,303.742 102.436,303.538 102.436 C 303.493 102.436,303.108 102.821,302.683 103.292 M27.823 103.621 C 27.911 104.200,28.026 104.724,28.080 104.784 C 28.279 105.010,28.130 103.600,27.901 103.094 C 27.735 102.727,27.711 102.887,27.823 103.621 M306.276 102.794 C 306.336 102.846,307.038 102.955,307.834 103.036 C 308.735 103.128,309.084 103.099,308.756 102.960 C 308.251 102.746,306.049 102.598,306.276 102.794 M166.689 103.765 C 166.400 103.960,166.507 103.984,167.084 103.855 C 168.052 103.639,168.262 103.488,167.588 103.493 C 167.311 103.495,166.906 103.617,166.689 103.765 M311.543 103.584 C 311.603 103.636,312.008 103.758,312.442 103.855 C 313.019 103.984,313.126 103.960,312.837 103.765 C 312.482 103.524,311.278 103.356,311.543 103.584 M329.752 104.542 C 329.752 105.049,329.806 105.257,329.872 105.003 C 329.938 104.750,329.938 104.335,329.872 104.082 C 329.806 103.828,329.752 104.036,329.752 104.542 M163.265 104.546 C 162.987 104.728,163.144 104.755,163.792 104.636 C 164.928 104.428,165.142 104.278,164.297 104.283 C 163.947 104.285,163.483 104.404,163.265 104.546 M159.184 105.345 C 158.817 105.511,158.976 105.535,159.710 105.423 C 160.290 105.335,160.813 105.219,160.873 105.166 C 161.100 104.966,159.689 105.116,159.184 105.345 M153.785 106.131 C 153.360 106.273,153.640 106.298,154.575 106.201 C 155.372 106.119,156.073 106.008,156.133 105.955 C 156.344 105.771,154.438 105.914,153.785 106.131 M301.009 106.219 C 301.070 106.272,301.593 106.388,302.172 106.476 C 302.907 106.588,303.066 106.564,302.699 106.398 C 302.194 106.169,300.783 106.020,301.009 106.219 M118.173 106.835 C 118.500 106.898,118.974 106.896,119.226 106.830 C 119.478 106.764,119.210 106.713,118.631 106.716 C 118.051 106.718,117.845 106.772,118.173 106.835 M260.434 107.571 C 260.926 108.078,261.387 108.492,261.459 108.492 C 261.532 108.492,261.189 108.078,260.698 107.571 C 260.207 107.064,259.745 106.649,259.673 106.649 C 259.600 106.649,259.943 107.064,260.434 107.571 M120.276 107.098 C 120.602 107.161,121.136 107.161,121.461 107.098 C 121.787 107.036,121.521 106.984,120.869 106.984 C 120.217 106.984,119.951 107.036,120.276 107.098 M145.559 107.099 C 145.887 107.162,146.361 107.159,146.613 107.093 C 146.864 107.027,146.596 106.976,146.017 106.979 C 145.438 106.982,145.232 107.036,145.559 107.099 M264.479 107.915 C 264.441 108.875,264.444 108.878,264.706 108.140 C 264.854 107.722,264.870 107.294,264.743 107.168 C 264.616 107.043,264.500 107.373,264.479 107.915 M126.995 107.365 C 127.395 107.425,127.988 107.424,128.312 107.361 C 128.636 107.299,128.308 107.249,127.584 107.251 C 126.860 107.253,126.595 107.304,126.995 107.365 M139.500 107.362 C 139.826 107.424,140.359 107.424,140.685 107.362 C 141.011 107.299,140.744 107.247,140.092 107.247 C 139.440 107.247,139.174 107.299,139.500 107.362 M111.756 111.126 C 111.756 113.081,111.797 113.881,111.848 112.903 C 111.898 111.926,111.898 110.326,111.848 109.348 C 111.797 108.371,111.756 109.171,111.756 111.126 M228.188 108.295 C 228.287 108.621,228.476 109.003,228.608 109.145 C 228.741 109.286,228.716 109.020,228.553 108.552 C 228.219 107.596,227.911 107.378,228.188 108.295 M243.581 109.101 C 243.581 109.147,243.966 109.532,244.437 109.957 L 245.293 110.731 244.520 109.875 C 243.799 109.077,243.581 108.898,243.581 109.101 M29.374 110.731 C 29.477 111.165,29.662 111.631,29.786 111.766 C 29.909 111.901,29.898 111.619,29.760 111.138 C 29.439 110.018,29.127 109.690,29.374 110.731 M226.333 110.336 C 226.623 110.460,227.097 110.559,227.386 110.554 C 227.810 110.548,227.784 110.505,227.255 110.336 C 226.354 110.047,225.662 110.047,226.333 110.336 M82.028 110.862 L 81.238 111.063 81.946 111.095 C 82.336 111.112,82.728 111.007,82.818 110.862 C 82.907 110.718,82.944 110.613,82.899 110.630 C 82.854 110.647,82.462 110.752,82.028 110.862 M99.127 117.577 C 99.127 121.343,99.164 122.847,99.209 120.919 C 99.254 118.992,99.254 115.911,99.209 114.073 C 99.164 112.235,99.127 113.812,99.127 117.577 M245.951 111.643 C 245.951 111.893,245.626 111.948,244.731 111.847 C 243.981 111.762,243.651 111.798,243.875 111.940 C 244.703 112.464,246.687 112.037,246.109 111.459 C 246.022 111.372,245.951 111.455,245.951 111.643 M75.444 112.442 L 74.654 112.643 75.363 112.675 C 75.753 112.692,76.145 112.587,76.234 112.442 C 76.324 112.298,76.360 112.193,76.316 112.210 C 76.271 112.227,75.879 112.332,75.444 112.442 M67.939 114.022 L 67.018 114.216 67.858 114.251 C 68.320 114.270,68.772 114.167,68.861 114.022 C 68.951 113.878,68.987 113.775,68.942 113.794 C 68.898 113.813,68.446 113.916,67.939 114.022 M63.265 114.994 C 63.519 115.060,63.934 115.060,64.187 114.994 C 64.440 114.928,64.233 114.873,63.726 114.873 C 63.219 114.873,63.012 114.928,63.265 114.994 M199.958 115.277 C 199.790 115.384,201.034 115.438,202.723 115.399 C 207.478 115.287,208.009 115.168,203.950 115.124 C 201.922 115.102,200.126 115.171,199.958 115.277 M58.525 115.784 C 58.779 115.850,59.194 115.850,59.447 115.784 C 59.700 115.718,59.493 115.663,58.986 115.663 C 58.479 115.663,58.272 115.718,58.525 115.784 M52.864 116.578 C 53.190 116.641,53.723 116.641,54.049 116.578 C 54.375 116.515,54.108 116.464,53.456 116.464 C 52.804 116.464,52.538 116.515,52.864 116.578 M38.234 117.379 C 39.783 117.425,42.390 117.425,44.028 117.379 C 45.665 117.333,44.398 117.295,41.211 117.295 C 38.025 117.294,36.685 117.332,38.234 117.379 M112.033 127.321 C 112.033 131.955,112.069 133.814,112.113 131.451 C 112.157 129.089,112.156 125.297,112.113 123.025 C 112.069 120.753,112.033 122.686,112.033 127.321 M190.878 122.120 C 190.121 123.034,189.800 123.502,189.930 123.502 C 190.003 123.502,190.379 123.088,190.766 122.581 C 191.483 121.640,191.570 121.285,190.878 122.120 M50.362 123.428 C 50.760 123.488,51.412 123.488,51.810 123.428 C 52.209 123.367,51.883 123.318,51.086 123.318 C 50.290 123.318,49.964 123.367,50.362 123.428 M291.880 129.164 C 291.880 131.771,291.919 132.802,291.967 131.455 C 292.015 130.108,292.015 127.975,291.967 126.715 C 291.919 125.455,291.879 126.557,291.880 129.164 M98.841 127.716 C 98.841 128.947,98.887 129.450,98.942 128.835 C 98.997 128.219,98.997 127.212,98.942 126.596 C 98.887 125.981,98.841 126.485,98.841 127.716 M169.717 129.405 C 169.862 129.464,170.317 129.587,170.728 129.678 C 171.285 129.802,171.406 129.927,171.204 130.171 C 170.858 130.587,171.131 131.016,171.891 131.253 C 172.310 131.384,172.531 131.317,172.643 131.025 C 172.730 130.798,173.056 130.608,173.366 130.603 C 174.064 130.591,171.331 129.535,170.244 129.397 C 169.809 129.342,169.572 129.345,169.717 129.405 M201.003 131.534 C 201.005 132.403,201.054 132.727,201.113 132.253 C 201.171 131.780,201.170 131.069,201.110 130.673 C 201.050 130.278,201.002 130.665,201.003 131.534 M175.581 130.540 C 176.054 130.598,176.765 130.597,177.161 130.537 C 177.556 130.477,177.169 130.429,176.300 130.431 C 175.431 130.432,175.107 130.481,175.581 130.540 M250.161 131.274 C 249.648 131.820,249.601 131.993,249.891 132.262 C 250.172 132.522,250.202 132.517,250.044 132.239 C 249.924 132.027,250.082 131.639,250.446 131.251 C 250.776 130.900,250.987 130.612,250.915 130.612 C 250.842 130.612,250.503 130.910,250.161 131.274 M333.899 132.534 L 334.026 133.904 334.113 132.749 C 334.162 132.114,334.105 131.497,333.987 131.379 C 333.869 131.261,333.829 131.781,333.899 132.534 M250.988 133.816 C 250.755 134.189,250.763 134.299,251.021 134.299 C 251.204 134.299,251.490 134.082,251.656 133.816 C 251.889 133.443,251.882 133.333,251.624 133.333 C 251.440 133.333,251.154 133.551,250.988 133.816 M98.258 136.581 C 98.239 136.896,98.154 137.370,98.071 137.635 C 97.928 138.091,97.935 138.092,98.220 137.649 C 98.385 137.391,98.470 136.917,98.407 136.595 C 98.294 136.011,98.294 136.011,98.258 136.581 M111.743 138.117 C 111.744 139.276,111.790 139.717,111.846 139.098 C 111.901 138.478,111.900 137.530,111.844 136.991 C 111.787 136.452,111.742 136.959,111.743 138.117 M201.628 138.249 C 201.714 138.901,201.828 139.483,201.880 139.544 C 202.078 139.772,201.927 138.093,201.705 137.591 C 201.549 137.239,201.524 137.458,201.628 138.249 M177.749 138.137 C 177.749 138.315,179.116 138.812,179.247 138.682 C 179.307 138.622,178.994 138.447,178.552 138.293 C 178.110 138.139,177.749 138.069,177.749 138.137 M322.945 139.347 C 321.875 140.152,321.569 140.469,322.186 140.132 C 322.871 139.757,324.076 138.789,323.867 138.781 C 323.778 138.778,323.363 139.033,322.945 139.347 M184.398 139.754 C 184.796 139.814,185.448 139.814,185.846 139.754 C 186.244 139.694,185.918 139.644,185.122 139.644 C 184.325 139.644,183.999 139.694,184.398 139.754 M58.723 143.120 C 59.510 143.917,60.212 144.569,60.285 144.569 C 60.357 144.569,59.773 143.917,58.986 143.120 C 58.199 142.324,57.497 141.672,57.424 141.672 C 57.352 141.672,57.936 142.324,58.723 143.120 M110.842 144.371 C 110.763 144.937,110.803 145.260,110.936 145.127 C 111.063 145.000,111.124 144.556,111.073 144.140 C 110.986 143.444,110.967 143.462,110.842 144.371 M83.476 145.092 C 83.693 145.234,84.157 145.353,84.507 145.355 C 85.353 145.360,85.138 145.210,84.003 145.002 C 83.354 144.883,83.198 144.910,83.476 145.092 M90.849 145.095 C 90.307 145.269,90.284 145.310,90.718 145.329 C 91.007 145.341,91.422 145.236,91.639 145.095 C 92.101 144.797,91.780 144.797,90.849 145.095 M86.828 145.549 C 87.295 145.607,88.125 145.608,88.671 145.551 C 89.217 145.494,88.835 145.446,87.821 145.445 C 86.807 145.444,86.360 145.491,86.828 145.549 M307.044 146.544 C 307.535 147.051,307.997 147.465,308.069 147.465 C 308.141 147.465,307.799 147.051,307.307 146.544 C 306.816 146.037,306.355 145.622,306.282 145.622 C 306.210 145.622,306.553 146.037,307.044 146.544 M246.215 146.416 C 246.432 146.554,246.955 146.669,247.378 146.671 C 248.396 146.677,248.175 146.525,246.873 146.325 C 246.156 146.215,245.946 146.244,246.215 146.416 M250.428 147.198 C 250.645 147.341,251.109 147.459,251.459 147.461 C 252.304 147.467,252.090 147.317,250.955 147.109 C 250.306 146.990,250.150 147.016,250.428 147.198 M254.672 148.016 C 255.013 148.233,257.228 148.369,256.989 148.159 C 256.929 148.106,256.301 148.000,255.593 147.924 C 254.807 147.839,254.449 147.875,254.672 148.016 M308.785 148.208 C 308.700 148.346,308.797 148.598,309.001 148.767 C 309.294 149.010,309.359 148.990,309.313 148.673 C 309.233 148.129,308.974 147.902,308.785 148.208 M270.375 148.968 C 270.701 149.031,271.234 149.031,271.560 148.968 C 271.886 148.905,271.619 148.854,270.968 148.854 C 270.316 148.854,270.049 148.905,270.375 148.968 M289.160 150.457 C 289.220 150.509,289.921 150.618,290.718 150.699 C 291.619 150.791,291.967 150.762,291.639 150.623 C 291.135 150.408,288.933 150.261,289.160 150.457 M235.704 151.516 L 235.068 152.337 235.822 151.621 C 236.236 151.227,236.522 150.857,236.457 150.800 C 236.393 150.742,236.054 151.064,235.704 151.516 M310.374 152.205 C 310.582 153.341,310.732 153.555,310.727 152.710 C 310.724 152.360,310.606 151.896,310.464 151.679 C 310.282 151.401,310.255 151.557,310.374 152.205 M225.170 152.826 C 225.230 152.878,225.695 152.996,226.201 153.089 C 226.850 153.208,227.006 153.181,226.728 152.999 C 226.371 152.765,224.909 152.603,225.170 152.826 M229.553 153.712 C 230.021 153.770,230.850 153.771,231.396 153.714 C 231.943 153.657,231.560 153.610,230.546 153.608 C 229.533 153.607,229.086 153.654,229.553 153.712 M120.136 155.677 C 119.889 155.924,119.830 160.230,119.879 174.444 L 119.942 192.890 120.076 174.325 L 120.211 155.760 126.445 155.690 C 131.864 155.628,132.695 155.672,132.804 156.024 C 132.894 156.315,132.917 156.298,132.886 155.963 C 132.832 155.369,120.717 155.097,120.136 155.677 M132.825 161.422 C 132.825 163.667,132.865 164.585,132.915 163.463 C 132.964 162.340,132.964 160.504,132.915 159.381 C 132.865 158.259,132.825 159.177,132.825 161.422 M250.757 158.797 C 249.875 159.151,250.040 159.331,250.955 159.013 C 251.389 158.861,251.745 158.689,251.745 158.631 C 251.745 158.475,251.424 158.529,250.757 158.797 M86.373 159.312 C 86.590 159.454,87.054 159.572,87.404 159.575 C 88.249 159.580,88.035 159.430,86.899 159.222 C 86.251 159.103,86.095 159.130,86.373 159.312 M90.676 160.167 C 90.844 160.274,92.284 160.345,93.878 160.325 C 97.149 160.285,96.709 160.159,92.914 160.048 C 91.516 160.007,90.508 160.061,90.676 160.167 M295.318 161.488 L 293.746 163.134 295.392 161.562 C 296.921 160.102,297.158 159.842,296.963 159.842 C 296.923 159.842,296.182 160.583,295.318 161.488 M288.726 161.751 L 287.953 162.607 288.808 161.834 C 289.606 161.113,289.785 160.895,289.582 160.895 C 289.537 160.895,289.151 161.280,288.726 161.751 M275.809 161.538 C 275.729 161.747,275.710 162.132,275.766 162.394 C 275.831 162.691,275.921 162.549,276.006 162.014 C 276.150 161.118,276.056 160.893,275.809 161.538 M267.808 162.280 C 267.808 162.511,267.600 162.754,267.347 162.820 C 266.915 162.933,266.916 162.943,267.355 162.971 C 267.831 163.002,268.272 162.326,267.972 162.025 C 267.882 161.935,267.808 162.050,267.808 162.280 M265.240 162.657 C 265.494 162.723,265.908 162.723,266.162 162.657 C 266.415 162.591,266.208 162.536,265.701 162.536 C 265.194 162.536,264.987 162.591,265.240 162.657 M292.547 163.989 L 291.639 164.977 292.627 164.069 C 293.546 163.225,293.735 163.002,293.534 163.002 C 293.490 163.002,293.046 163.446,292.547 163.989 M132.534 167.215 C 132.534 168.012,132.584 168.338,132.644 167.939 C 132.705 167.541,132.705 166.889,132.644 166.491 C 132.584 166.093,132.534 166.419,132.534 167.215 M261.290 166.607 C 261.544 166.673,261.959 166.673,262.212 166.607 C 262.465 166.541,262.258 166.486,261.751 166.486 C 261.244 166.486,261.037 166.541,261.290 166.607 M263.268 166.875 C 263.596 166.938,264.070 166.935,264.322 166.870 C 264.573 166.804,264.305 166.752,263.726 166.755 C 263.147 166.758,262.941 166.812,263.268 166.875 M143.112 181.567 C 143.112 189.388,143.145 192.549,143.186 188.592 C 143.227 184.635,143.227 178.236,143.186 174.372 C 143.145 170.508,143.112 173.746,143.112 181.567 M213.891 168.721 C 214.289 168.781,214.941 168.781,215.339 168.721 C 215.737 168.660,215.411 168.611,214.615 168.611 C 213.818 168.611,213.492 168.660,213.891 168.721 M309.064 169.980 C 309.263 171.282,309.415 171.504,309.410 170.485 C 309.408 170.063,309.293 169.539,309.154 169.322 C 308.983 169.053,308.954 169.263,309.064 169.980 M318.547 170.112 C 318.633 170.764,318.747 171.346,318.799 171.407 C 318.997 171.635,318.846 169.957,318.624 169.454 C 318.468 169.102,318.443 169.321,318.547 170.112 M241.594 170.968 L 240.553 172.087 241.672 171.046 C 242.713 170.078,242.912 169.849,242.713 169.849 C 242.670 169.849,242.166 170.352,241.594 170.968 M95.138 171.297 C 95.140 172.021,95.191 172.286,95.252 171.886 C 95.312 171.486,95.310 170.893,95.248 170.569 C 95.185 170.245,95.136 170.573,95.138 171.297 M109.080 187.674 C 109.046 197.260,109.108 205.159,109.217 205.226 C 109.396 205.337,109.393 192.458,109.211 176.432 C 109.172 173.028,109.113 178.087,109.080 187.674 M239.483 172.811 L 238.710 173.667 239.566 172.893 C 240.036 172.468,240.421 172.083,240.421 172.038 C 240.421 171.834,240.204 172.013,239.483 172.811 M245.013 173.601 L 244.240 174.457 245.095 173.683 C 245.566 173.258,245.951 172.873,245.951 172.828 C 245.951 172.624,245.734 172.803,245.013 173.601 M271.363 173.291 C 272.050 173.561,273.274 173.589,273.427 173.338 C 273.492 173.229,272.937 173.128,272.191 173.112 C 271.286 173.093,271.011 173.153,271.363 173.291 M319.318 174.720 C 319.535 175.688,319.685 175.899,319.680 175.225 C 319.678 174.947,319.556 174.542,319.409 174.325 C 319.213 174.037,319.189 174.143,319.318 174.720 M310.527 175.077 C 310.567 175.222,310.362 175.534,310.072 175.769 C 309.555 176.190,309.555 176.193,310.124 175.918 C 310.848 175.568,311.084 175.202,310.729 174.982 C 310.578 174.889,310.487 174.932,310.527 175.077 M182.561 177.003 C 182.065 177.499,181.929 177.527,181.515 177.215 C 181.061 176.871,181.060 176.878,181.503 177.360 C 181.956 177.855,181.979 177.851,182.682 177.148 C 183.076 176.754,183.338 176.432,183.265 176.432 C 183.192 176.432,182.875 176.689,182.561 177.003 M213.389 178.864 C 213.556 178.970,214.108 179.057,214.615 179.057 C 215.122 179.057,215.673 178.970,215.841 178.864 C 216.008 178.757,215.456 178.670,214.615 178.670 C 213.774 178.670,213.222 178.757,213.389 178.864 M156.272 187.755 C 156.272 192.172,156.308 193.980,156.352 191.771 C 156.396 189.562,156.396 185.948,156.352 183.739 C 156.308 181.531,156.272 183.338,156.272 187.755 M320.282 180.908 C 320.282 181.560,320.334 181.827,320.397 181.501 C 320.459 181.175,320.459 180.642,320.397 180.316 C 320.334 179.990,320.282 180.257,320.282 180.908 M206.847 181.863 C 206.373 182.266,206.276 182.426,206.605 182.263 C 207.088 182.023,207.993 181.156,207.735 181.181 C 207.681 181.187,207.281 181.493,206.847 181.863 M190.125 182.620 C 189.485 183.272,189.021 183.805,189.094 183.805 C 189.166 183.805,189.749 183.272,190.388 182.620 C 191.028 181.968,191.492 181.435,191.420 181.435 C 191.347 181.435,190.765 181.968,190.125 182.620 M320.540 183.410 C 320.543 183.989,320.597 184.195,320.660 183.868 C 320.723 183.540,320.721 183.066,320.655 182.815 C 320.589 182.563,320.537 182.831,320.540 183.410 M268.951 183.604 C 269.352 183.858,271.692 183.861,271.848 183.608 C 271.914 183.499,271.221 183.410,270.308 183.410 C 269.394 183.410,268.784 183.497,268.951 183.604 M314.379 185.188 C 314.511 185.321,314.900 185.386,315.243 185.332 C 315.770 185.249,315.733 185.212,315.002 185.090 C 314.478 185.004,314.233 185.042,314.379 185.188 M194.873 185.842 C 194.869 186.021,195.191 186.500,195.589 186.908 C 195.987 187.315,196.122 187.406,195.888 187.109 C 195.655 186.813,195.333 186.333,195.172 186.043 C 195.012 185.754,194.877 185.663,194.873 185.842 M178.209 188.468 C 178.535 188.530,179.068 188.530,179.394 188.468 C 179.720 188.405,179.454 188.353,178.802 188.353 C 178.150 188.353,177.883 188.405,178.209 188.468 M132.001 194.865 C 132.001 195.517,132.052 195.783,132.115 195.458 C 132.178 195.132,132.178 194.598,132.115 194.273 C 132.052 193.947,132.001 194.213,132.001 194.865 M371.803 215.207 C 371.724 215.773,371.765 216.096,371.897 215.963 C 372.024 215.836,372.086 215.392,372.034 214.976 C 371.947 214.280,371.929 214.298,371.803 215.207 M371.078 217.761 C 370.924 218.203,370.854 218.565,370.922 218.565 C 371.100 218.565,371.597 217.197,371.466 217.067 C 371.407 217.007,371.232 217.320,371.078 217.761 M369.189 221.001 C 368.802 221.530,368.738 221.714,369.023 221.483 C 369.454 221.132,370.107 220.145,369.907 220.145 C 369.857 220.145,369.534 220.530,369.189 221.001 M99.144 222.251 C 99.857 222.976,100.500 223.568,100.573 223.568 C 100.645 223.568,100.121 222.976,99.408 222.251 C 98.694 221.527,98.051 220.935,97.979 220.935 C 97.907 220.935,98.431 221.527,99.144 222.251 M103.752 225.300 C 103.752 225.478,105.120 225.975,105.251 225.844 C 105.310 225.785,104.998 225.610,104.556 225.456 C 104.114 225.302,103.752 225.232,103.752 225.300 M113.284 226.398 C 114.833 226.444,117.440 226.444,119.077 226.398 C 120.714 226.352,119.447 226.314,116.261 226.314 C 113.074 226.313,111.735 226.351,113.284 226.398 M125.283 226.388 C 125.610 226.451,126.084 226.448,126.336 226.382 C 126.588 226.316,126.320 226.265,125.741 226.268 C 125.161 226.271,124.955 226.325,125.283 226.388 M128.697 226.392 C 129.165 226.450,129.994 226.451,130.541 226.394 C 131.087 226.337,130.704 226.289,129.691 226.288 C 128.677 226.287,128.230 226.333,128.697 226.392 M136.603 226.398 C 137.943 226.445,140.135 226.445,141.475 226.398 C 142.814 226.350,141.718 226.311,139.039 226.311 C 136.359 226.311,135.263 226.350,136.603 226.398 M148.719 226.388 C 149.047 226.451,149.521 226.448,149.773 226.382 C 150.024 226.316,149.756 226.265,149.177 226.268 C 148.598 226.271,148.392 226.325,148.719 226.388 M153.851 226.393 C 154.394 226.450,155.283 226.450,155.826 226.393 C 156.369 226.336,155.925 226.290,154.839 226.290 C 153.752 226.290,153.308 226.336,153.851 226.393 M159.908 226.393 C 160.451 226.450,161.340 226.450,161.883 226.393 C 162.426 226.336,161.982 226.290,160.895 226.290 C 159.809 226.290,159.365 226.336,159.908 226.393 M165.836 226.388 C 166.163 226.451,166.637 226.448,166.889 226.382 C 167.141 226.316,166.873 226.265,166.294 226.268 C 165.714 226.271,165.508 226.325,165.836 226.388 M179.669 226.397 C 180.652 226.448,182.193 226.447,183.092 226.396 C 183.991 226.345,183.186 226.303,181.303 226.304 C 179.421 226.304,178.685 226.346,179.669 226.397 M187.692 226.388 C 188.020 226.451,188.494 226.448,188.746 226.382 C 188.997 226.316,188.729 226.265,188.150 226.268 C 187.571 226.271,187.365 226.325,187.692 226.388 M194.985 226.396 C 198.338 226.454,199.780 226.571,199.943 226.800 C 200.108 227.034,200.142 227.014,200.064 226.728 C 199.974 226.396,199.189 226.332,195.107 226.324 L 190.257 226.314 194.985 226.396 M285.364 226.399 C 298.858 226.437,321.018 226.437,334.607 226.399 C 348.197 226.361,337.156 226.330,310.072 226.330 C 282.989 226.330,271.870 226.361,285.364 226.399 M261.291 229.756 C 261.294 230.336,261.348 230.542,261.411 230.214 C 261.474 229.887,261.471 229.413,261.405 229.161 C 261.340 228.909,261.288 229.177,261.291 229.756 M261.946 235.053 C 262.022 235.761,262.128 236.389,262.181 236.449 C 262.391 236.688,262.255 234.473,262.039 234.132 C 261.898 233.909,261.862 234.267,261.946 235.053 M198.453 237.140 C 198.362 237.375,198.300 237.825,198.315 238.139 C 198.332 238.500,198.422 238.371,198.558 237.790 C 198.789 236.811,198.726 236.427,198.453 237.140 M262.871 241.080 C 262.874 241.659,262.928 241.865,262.991 241.537 C 263.054 241.210,263.051 240.736,262.985 240.484 C 262.919 240.232,262.868 240.500,262.871 241.080 M197.559 243.581 C 197.559 244.088,197.614 244.296,197.680 244.042 C 197.746 243.789,197.746 243.374,197.680 243.120 C 197.614 242.867,197.559 243.074,197.559 243.581 M263.701 246.215 L 263.726 246.873 275.510 246.877 L 287.294 246.881 275.593 246.809 L 263.892 246.736 263.784 246.146 C 263.690 245.638,263.679 245.647,263.701 246.215 M292.913 255.168 C 292.913 256.254,292.959 256.698,293.016 256.155 C 293.073 255.612,293.073 254.724,293.016 254.180 C 292.959 253.637,292.913 254.082,292.913 255.168 M168.330 256.485 C 168.330 256.991,168.384 257.199,168.450 256.945 C 168.516 256.692,168.516 256.277,168.450 256.024 C 168.384 255.770,168.330 255.978,168.330 256.485 M168.593 258.328 C 168.593 258.835,168.647 259.042,168.713 258.789 C 168.780 258.535,168.780 258.120,168.713 257.867 C 168.647 257.614,168.593 257.821,168.593 258.328 M169.288 260.764 C 169.631 261.201,172.810 261.221,230.381 261.159 L 291.113 261.094 230.441 261.027 C 182.442 260.974,169.682 260.891,169.348 260.631 C 168.975 260.340,168.968 260.355,169.288 260.764 " stroke="none" fill="#9e9e9e" fill-rule="evenodd"></path><path id="path3" d="M90.261 4.667 C 90.735 4.726,91.446 4.725,91.841 4.665 C 92.237 4.605,91.850 4.557,90.981 4.558 C 90.112 4.560,89.788 4.609,90.261 4.667 M100.066 8.295 C 100.557 8.802,101.018 9.217,101.091 9.217 C 101.163 9.217,100.820 8.802,100.329 8.295 C 99.838 7.788,99.377 7.373,99.304 7.373 C 99.232 7.373,99.575 7.788,100.066 8.295 M144.174 35.813 C 145.180 36.827,146.062 37.656,146.135 37.656 C 146.207 37.656,145.443 36.827,144.437 35.813 C 143.431 34.799,142.549 33.970,142.476 33.970 C 142.404 33.970,143.168 34.799,144.174 35.813 M209.171 35.747 C 220.444 35.785,238.811 35.785,249.988 35.747 C 261.165 35.709,251.942 35.678,229.493 35.678 C 207.044 35.678,197.899 35.709,209.171 35.747 M158.262 36.044 C 158.262 36.171,158.469 36.438,158.723 36.637 C 159.140 36.964,159.149 36.954,158.825 36.541 C 158.487 36.109,158.936 36.080,166.857 36.010 L 175.247 35.937 166.754 35.875 C 162.011 35.840,158.262 35.915,158.262 36.044 M371.954 130.481 C 371.954 176.392,371.984 195.135,372.021 172.131 C 372.058 149.128,372.058 111.563,372.021 88.655 C 371.984 65.747,371.954 84.569,371.954 130.481 M196.643 50.230 C 202.472 50.270,212.011 50.270,217.841 50.230 C 223.670 50.191,218.901 50.158,207.242 50.158 C 195.583 50.158,190.813 50.191,196.643 50.230 M258.050 61.554 L 257.143 62.541 258.130 61.634 C 258.673 61.135,259.118 60.690,259.118 60.646 C 259.118 60.445,258.895 60.635,258.050 61.554 M26.931 76.366 C 26.931 77.018,26.983 77.284,27.046 76.959 C 27.108 76.633,27.108 76.099,27.046 75.774 C 26.983 75.448,26.931 75.714,26.931 76.366 M26.394 82.423 C 26.394 82.930,26.448 83.137,26.515 82.883 C 26.581 82.630,26.581 82.215,26.515 81.962 C 26.448 81.708,26.394 81.916,26.394 82.423 M237.252 84.463 L 235.813 85.978 237.327 84.538 C 238.160 83.747,238.841 83.065,238.841 83.024 C 238.841 82.829,238.590 83.057,237.252 84.463 M321.259 91.442 C 322.777 92.999,324.051 94.273,324.090 94.273 C 324.280 94.273,323.959 93.935,321.330 91.371 L 318.499 88.611 321.259 91.442 M26.394 89.796 C 26.394 90.303,26.448 90.510,26.515 90.257 C 26.581 90.003,26.581 89.589,26.515 89.335 C 26.448 89.082,26.394 89.289,26.394 89.796 M113.562 93.927 C 113.815 93.994,114.230 93.994,114.483 93.927 C 114.737 93.861,114.529 93.807,114.022 93.807 C 113.515 93.807,113.308 93.861,113.562 93.927 M111.192 94.191 C 111.445 94.257,111.860 94.257,112.113 94.191 C 112.367 94.125,112.159 94.070,111.652 94.070 C 111.145 94.070,110.938 94.125,111.192 94.191 M105.006 94.459 C 105.334 94.522,105.808 94.519,106.060 94.453 C 106.311 94.388,106.043 94.336,105.464 94.339 C 104.885 94.342,104.679 94.396,105.006 94.459 M251.994 95.523 L 251.086 96.511 252.074 95.603 C 252.993 94.759,253.182 94.536,252.981 94.536 C 252.937 94.536,252.493 94.980,251.994 95.523 M26.926 96.511 C 26.929 97.090,26.983 97.296,27.046 96.969 C 27.109 96.641,27.107 96.167,27.041 95.915 C 26.975 95.664,26.923 95.932,26.926 96.511 M264.064 100.787 C 264.829 100.840,266.014 100.840,266.697 100.786 C 267.381 100.732,266.754 100.688,265.306 100.689 C 263.858 100.689,263.299 100.734,264.064 100.787 M27.711 101.909 C 27.711 102.416,27.765 102.623,27.831 102.370 C 27.898 102.117,27.898 101.702,27.831 101.448 C 27.765 101.195,27.711 101.402,27.711 101.909 M304.477 102.354 C 304.730 102.420,305.145 102.420,305.398 102.354 C 305.652 102.288,305.444 102.234,304.937 102.234 C 304.431 102.234,304.223 102.288,304.477 102.354 M309.743 103.144 C 309.997 103.210,310.411 103.210,310.665 103.144 C 310.918 103.078,310.711 103.024,310.204 103.024 C 309.697 103.024,309.490 103.078,309.743 103.144 M165.006 103.968 C 164.933 104.087,165.222 104.133,165.649 104.070 C 166.076 104.007,166.425 103.910,166.425 103.854 C 166.425 103.654,165.137 103.757,165.006 103.968 M157.275 105.514 C 157.528 105.580,157.943 105.580,158.196 105.514 C 158.450 105.448,158.242 105.394,157.735 105.394 C 157.228 105.394,157.021 105.448,157.275 105.514 M113.562 106.304 C 113.815 106.370,114.230 106.370,114.483 106.304 C 114.737 106.238,114.529 106.184,114.022 106.184 C 113.515 106.184,113.308 106.238,113.562 106.304 M151.218 106.304 C 151.471 106.370,151.886 106.370,152.140 106.304 C 152.393 106.238,152.186 106.184,151.679 106.184 C 151.172 106.184,150.964 106.238,151.218 106.304 M99.618 107.702 C 99.618 108.499,99.667 108.825,99.728 108.427 C 99.788 108.028,99.788 107.377,99.728 106.978 C 99.667 106.580,99.618 106.906,99.618 107.702 M125.411 107.101 C 125.810 107.161,126.461 107.161,126.860 107.101 C 127.258 107.041,126.932 106.991,126.136 106.991 C 125.339 106.991,125.013 107.041,125.411 107.101 M140.693 107.106 C 141.385 107.161,142.451 107.160,143.063 107.105 C 143.674 107.050,143.107 107.005,141.804 107.006 C 140.500 107.007,140.000 107.052,140.693 107.106 M131.744 107.372 C 133.019 107.420,135.033 107.420,136.221 107.371 C 137.409 107.323,136.366 107.283,133.904 107.284 C 131.442 107.284,130.470 107.324,131.744 107.372 M303.558 108.152 C 303.886 108.215,304.360 108.213,304.611 108.147 C 304.863 108.081,304.595 108.029,304.016 108.032 C 303.436 108.035,303.230 108.089,303.558 108.152 M221.527 109.998 C 221.926 110.058,222.577 110.058,222.976 109.998 C 223.374 109.937,223.048 109.888,222.251 109.888 C 221.455 109.888,221.129 109.937,221.527 109.998 M99.337 110.862 C 99.337 111.369,99.391 111.577,99.457 111.323 C 99.524 111.070,99.524 110.655,99.457 110.402 C 99.391 110.148,99.337 110.355,99.337 110.862 M219.292 110.259 C 219.620 110.322,220.094 110.319,220.345 110.253 C 220.597 110.187,220.329 110.136,219.750 110.139 C 219.171 110.142,218.965 110.196,219.292 110.259 M224.424 110.254 C 224.677 110.320,225.092 110.320,225.346 110.254 C 225.599 110.188,225.392 110.134,224.885 110.134 C 224.378 110.134,224.171 110.188,224.424 110.254 M80.316 111.126 C 79.774 111.299,79.750 111.340,80.184 111.359 C 80.474 111.371,80.889 111.266,81.106 111.126 C 81.567 110.828,81.247 110.828,80.316 111.126 M32.126 115.207 C 32.618 115.714,33.079 116.129,33.151 116.129 C 33.224 116.129,32.881 115.714,32.390 115.207 C 31.898 114.700,31.437 114.286,31.365 114.286 C 31.292 114.286,31.635 114.700,32.126 115.207 M208.741 115.216 C 208.335 115.573,208.107 115.866,208.234 115.866 C 208.362 115.866,208.745 115.569,209.085 115.207 C 209.872 114.370,209.698 114.374,208.741 115.216 M55.500 116.052 C 55.828 116.115,56.302 116.113,56.553 116.047 C 56.805 115.981,56.537 115.929,55.958 115.932 C 55.379 115.935,55.173 115.989,55.500 116.052 M48.782 116.844 C 49.180 116.905,49.832 116.905,50.230 116.844 C 50.629 116.784,50.303 116.735,49.506 116.735 C 48.710 116.735,48.384 116.784,48.782 116.844 M111.770 127.321 C 111.770 131.955,111.806 133.814,111.850 131.451 C 111.893 129.089,111.893 125.297,111.849 123.025 C 111.806 120.753,111.770 122.686,111.770 127.321 M57.795 122.379 C 58.081 122.451,58.472 122.704,58.665 122.941 C 58.967 123.311,58.976 123.289,58.728 122.778 C 58.549 122.409,58.222 122.197,57.858 122.216 C 57.329 122.244,57.323 122.259,57.795 122.379 M48.782 123.684 C 49.036 123.750,49.450 123.750,49.704 123.684 C 49.957 123.618,49.750 123.563,49.243 123.563 C 48.736 123.563,48.529 123.618,48.782 123.684 M187.874 125.675 L 186.833 126.794 187.953 125.753 C 188.993 124.785,189.193 124.556,188.994 124.556 C 188.951 124.556,188.447 125.059,187.874 125.675 M99.099 127.584 C 99.100 128.598,99.148 128.980,99.205 128.434 C 99.262 127.888,99.261 127.058,99.203 126.591 C 99.144 126.123,99.098 126.570,99.099 127.584 M169.849 129.822 C 170.115 129.995,170.136 130.079,169.912 130.082 C 169.107 130.091,170.320 131.178,171.542 131.542 C 173.251 132.051,173.273 132.047,173.264 131.205 C 173.257 130.586,173.217 130.547,172.987 130.941 C 172.665 131.495,171.718 131.541,171.028 131.036 C 170.620 130.737,170.587 130.596,170.853 130.276 C 171.205 129.852,170.804 129.555,169.893 129.563 C 169.513 129.566,169.507 129.602,169.849 129.822 M98.841 132.719 C 98.841 133.950,98.887 134.454,98.942 133.838 C 98.997 133.223,98.997 132.215,98.942 131.600 C 98.887 130.984,98.841 131.488,98.841 132.719 M250.228 133.639 C 250.161 134.809,250.847 135.376,251.348 134.565 C 251.437 134.421,251.341 134.369,251.134 134.449 C 250.693 134.618,250.280 133.763,250.682 133.514 C 250.864 133.402,250.845 133.197,250.625 132.900 C 250.343 132.516,250.287 132.621,250.228 133.639 M143.310 139.350 C 143.116 139.543,143.007 140.305,143.034 141.264 L 143.080 142.857 143.232 141.145 L 143.384 139.434 149.504 139.363 L 155.625 139.292 155.696 156.611 L 155.766 173.930 155.763 156.550 L 155.760 139.171 149.695 139.100 C 145.199 139.048,143.547 139.112,143.310 139.350 M182.949 139.488 C 183.275 139.551,183.808 139.551,184.134 139.488 C 184.460 139.425,184.194 139.374,183.542 139.374 C 182.890 139.374,182.623 139.425,182.949 139.488 M186.241 139.484 C 186.494 139.550,186.909 139.550,187.163 139.484 C 187.416 139.417,187.209 139.363,186.702 139.363 C 186.195 139.363,185.987 139.417,186.241 139.484 M202.305 141.014 C 202.308 141.593,202.362 141.799,202.425 141.472 C 202.488 141.144,202.485 140.670,202.419 140.418 C 202.353 140.166,202.302 140.434,202.305 141.014 M58.723 142.857 C 59.656 143.799,60.479 144.569,60.551 144.569 C 60.623 144.569,59.919 143.799,58.986 142.857 C 58.053 141.916,57.230 141.145,57.158 141.145 C 57.086 141.145,57.790 141.916,58.723 142.857 M111.187 141.935 C 111.187 142.442,111.241 142.650,111.307 142.396 C 111.373 142.143,111.373 141.728,111.307 141.475 C 111.241 141.221,111.187 141.429,111.187 141.935 M202.207 144.775 C 202.120 145.298,202.159 145.544,202.305 145.397 C 202.438 145.265,202.502 144.876,202.448 144.533 C 202.365 144.006,202.328 144.043,202.207 144.775 M61.619 145.441 C 61.619 145.487,62.005 145.872,62.475 146.297 L 63.331 147.070 62.558 146.215 C 61.837 145.417,61.619 145.238,61.619 145.441 M87.228 145.811 C 87.627 145.871,88.278 145.871,88.677 145.811 C 89.075 145.750,88.749 145.701,87.953 145.701 C 87.156 145.701,86.830 145.750,87.228 145.811 M261.159 148.452 C 262.498 148.499,264.691 148.499,266.030 148.452 C 267.370 148.404,266.274 148.365,263.594 148.365 C 260.915 148.365,259.819 148.404,261.159 148.452 M283.410 150.030 C 284.243 150.082,285.606 150.082,286.438 150.030 C 287.271 149.978,286.590 149.935,284.924 149.935 C 283.259 149.935,282.577 149.978,283.410 150.030 M219.684 152.400 C 220.517 152.452,221.880 152.452,222.712 152.400 C 223.545 152.348,222.864 152.305,221.198 152.305 C 219.533 152.305,218.851 152.348,219.684 152.400 M104.658 155.958 L 103.884 156.814 104.740 156.040 C 105.538 155.319,105.717 155.102,105.513 155.102 C 105.468 155.102,105.083 155.487,104.658 155.958 M123.568 155.825 C 125.270 155.871,128.055 155.871,129.756 155.825 C 131.458 155.779,130.066 155.742,126.662 155.742 C 123.259 155.742,121.866 155.779,123.568 155.825 M120.154 157.077 C 120.156 157.801,120.207 158.066,120.268 157.666 C 120.328 157.266,120.327 156.673,120.264 156.349 C 120.202 156.025,120.152 156.353,120.154 157.077 M292.298 158.657 C 291.219 159.743,290.395 160.632,290.467 160.632 C 290.540 160.632,291.482 159.743,292.561 158.657 C 293.640 157.571,294.463 156.682,294.391 156.682 C 294.319 156.682,293.377 157.571,292.298 158.657 M143.090 161.159 C 143.090 162.969,143.132 163.710,143.184 162.804 C 143.235 161.899,143.235 160.418,143.184 159.513 C 143.132 158.608,143.090 159.348,143.090 161.159 M252.472 158.712 C 252.799 158.775,253.273 158.772,253.525 158.706 C 253.777 158.640,253.509 158.589,252.930 158.592 C 252.350 158.595,252.144 158.649,252.472 158.712 M294.783 161.751 L 294.009 162.607 294.865 161.834 C 295.663 161.113,295.842 160.895,295.638 160.895 C 295.593 160.895,295.208 161.280,294.783 161.751 M261.290 162.667 C 261.833 162.724,262.722 162.724,263.265 162.667 C 263.808 162.610,263.364 162.564,262.278 162.564 C 261.192 162.564,260.747 162.610,261.290 162.667 M132.522 164.450 C 132.525 165.030,132.579 165.236,132.642 164.908 C 132.705 164.580,132.702 164.106,132.636 163.855 C 132.571 163.603,132.519 163.871,132.522 164.450 M266.754 166.790 C 266.754 166.846,267.104 166.943,267.531 167.006 C 267.957 167.069,268.247 167.023,268.173 166.904 C 268.043 166.693,266.754 166.590,266.754 166.790 M120.140 169.849 C 120.140 170.355,120.194 170.563,120.261 170.309 C 120.327 170.056,120.327 169.641,120.261 169.388 C 120.194 169.134,120.140 169.342,120.140 169.849 M143.373 180.908 C 143.373 187.354,143.407 189.990,143.449 186.768 C 143.491 183.545,143.491 178.272,143.449 175.049 C 143.407 171.827,143.373 174.463,143.373 180.908 M209.612 169.849 L 207.900 170.021 209.530 170.066 C 210.427 170.091,211.234 169.993,211.323 169.849 C 211.413 169.704,211.449 169.606,211.405 169.631 C 211.360 169.656,210.553 169.754,209.612 169.849 M96.981 170.043 C 97.819 170.096,99.123 170.095,99.878 170.042 C 100.633 169.989,99.947 169.946,98.354 169.947 C 96.761 169.948,96.143 169.991,96.981 170.043 M105.925 170.040 C 106.468 170.097,107.357 170.097,107.900 170.040 C 108.443 169.984,107.999 169.937,106.912 169.937 C 105.826 169.937,105.382 169.984,105.925 170.040 M242.643 175.444 L 241.870 176.300 242.725 175.527 C 243.196 175.101,243.581 174.716,243.581 174.671 C 243.581 174.468,243.364 174.647,242.643 175.444 M265.339 177.100 C 265.248 177.336,265.191 178.022,265.212 178.626 C 265.246 179.659,265.260 179.638,265.433 178.275 C 265.629 176.731,265.603 176.411,265.339 177.100 M156.009 187.755 C 156.009 192.172,156.045 193.980,156.089 191.771 C 156.133 189.562,156.133 185.948,156.089 183.739 C 156.045 181.531,156.009 183.338,156.009 187.755 M120.190 186.570 C 120.191 189.612,120.229 190.820,120.276 189.255 C 120.322 187.690,120.322 185.202,120.275 183.725 C 120.228 182.248,120.190 183.529,120.190 186.570 M189.714 182.818 L 188.940 183.673 189.796 182.900 C 190.267 182.475,190.652 182.090,190.652 182.044 C 190.652 181.841,190.434 182.020,189.714 182.818 M320.277 183.410 C 320.280 183.989,320.334 184.195,320.397 183.868 C 320.460 183.540,320.458 183.066,320.392 182.815 C 320.326 182.563,320.274 182.831,320.277 183.410 M132.281 189.862 C 132.281 190.948,132.327 191.392,132.384 190.849 C 132.441 190.306,132.441 189.417,132.384 188.874 C 132.327 188.331,132.281 188.776,132.281 189.862 M230.354 189.526 C 230.827 189.585,231.538 189.583,231.934 189.523 C 232.329 189.463,231.942 189.415,231.073 189.417 C 230.204 189.418,229.880 189.467,230.354 189.526 M119.882 194.733 C 119.885 195.313,119.939 195.519,120.002 195.191 C 120.065 194.864,120.063 194.390,119.997 194.138 C 119.931 193.886,119.879 194.154,119.882 194.733 M143.481 195.989 C 143.592 196.101,146.460 196.160,149.854 196.120 L 156.024 196.049 149.651 195.918 C 146.146 195.846,143.369 195.878,143.481 195.989 M123.027 196.115 C 124.576 196.161,127.183 196.161,128.820 196.115 C 130.458 196.069,129.190 196.031,126.004 196.031 C 122.818 196.030,121.478 196.068,123.027 196.115 M171.494 205.596 C 205.783 205.633,261.893 205.633,296.182 205.596 C 330.471 205.559,302.416 205.529,233.838 205.529 C 165.260 205.529,137.205 205.559,171.494 205.596 M95.487 215.273 C 95.703 216.241,95.854 216.452,95.849 215.778 C 95.846 215.500,95.724 215.095,95.577 214.878 C 95.382 214.590,95.358 214.696,95.487 215.273 M263.129 243.845 C 263.129 244.352,263.183 244.559,263.249 244.305 C 263.316 244.052,263.316 243.637,263.249 243.384 C 263.183 243.130,263.129 243.338,263.129 243.845 M178.868 247.465 C 182.163 247.507,187.554 247.507,190.849 247.465 C 194.144 247.423,191.448 247.389,184.858 247.389 C 178.269 247.389,175.573 247.423,178.868 247.465 M168.330 253.851 C 168.330 254.358,168.384 254.566,168.450 254.312 C 168.516 254.059,168.516 253.644,168.450 253.390 C 168.384 253.137,168.330 253.344,168.330 253.851 " stroke="none" fill="#747473" fill-rule="evenodd"></path><path id="path4" d="M350.691 35.483 C 352.321 35.529,354.987 35.529,356.616 35.483 C 358.246 35.437,356.912 35.399,353.654 35.399 C 350.395 35.399,349.062 35.437,350.691 35.483 M182.028 35.746 C 183.295 35.794,185.369 35.794,186.636 35.746 C 187.903 35.697,186.866 35.658,184.332 35.658 C 181.797 35.658,180.760 35.697,182.028 35.746 M233.922 50.230 C 237.082 50.272,242.177 50.272,245.245 50.230 C 248.313 50.188,245.727 50.154,239.500 50.154 C 233.272 50.154,230.762 50.188,233.922 50.230 M26.158 86.373 C 26.158 87.459,26.205 87.903,26.262 87.360 C 26.318 86.817,26.318 85.928,26.262 85.385 C 26.205 84.842,26.158 85.286,26.158 86.373 M109.612 94.191 C 109.865 94.257,110.280 94.257,110.533 94.191 C 110.787 94.125,110.579 94.070,110.072 94.070 C 109.566 94.070,109.358 94.125,109.612 94.191 M122.651 107.103 C 123.124 107.162,123.835 107.161,124.231 107.101 C 124.627 107.041,124.240 106.993,123.371 106.994 C 122.502 106.996,122.178 107.045,122.651 107.103 M111.746 116.787 C 111.745 118.091,111.790 118.657,111.845 118.046 C 111.900 117.435,111.901 116.368,111.846 115.676 C 111.792 114.984,111.747 115.484,111.746 116.787 M47.202 123.684 C 47.456 123.750,47.870 123.750,48.124 123.684 C 48.377 123.618,48.170 123.563,47.663 123.563 C 47.156 123.563,46.949 123.618,47.202 123.684 M170.893 130.228 C 170.618 130.559,170.620 130.694,170.899 130.953 C 171.173 131.206,171.212 131.184,171.093 130.842 C 171.010 130.606,171.076 130.280,171.238 130.118 C 171.401 129.955,171.465 129.822,171.382 129.822 C 171.298 129.822,171.078 130.005,170.893 130.228 M250.691 133.509 C 250.482 133.638,250.399 133.831,250.506 133.938 C 250.613 134.045,250.838 133.994,251.007 133.825 C 251.405 133.427,251.183 133.205,250.691 133.509 M68.192 136.208 C 69.283 137.371,69.519 137.580,69.519 137.382 C 69.519 137.340,68.957 136.777,68.269 136.131 L 67.018 134.957 68.192 136.208 M202.310 142.989 C 202.310 143.641,202.361 143.907,202.424 143.581 C 202.487 143.255,202.487 142.722,202.424 142.396 C 202.361 142.070,202.310 142.337,202.310 142.989 M120.190 163.660 C 120.191 166.702,120.229 167.910,120.276 166.345 C 120.322 164.780,120.322 162.292,120.275 160.815 C 120.228 159.339,120.190 160.619,120.190 163.660 M143.073 165.899 C 143.073 166.840,143.121 167.225,143.179 166.754 C 143.238 166.284,143.238 165.513,143.179 165.043 C 143.121 164.572,143.073 164.957,143.073 165.899 M265.109 166.874 C 265.434 166.937,265.968 166.937,266.294 166.874 C 266.619 166.812,266.353 166.760,265.701 166.760 C 265.049 166.760,264.783 166.812,265.109 166.874 M102.114 170.042 C 102.733 170.097,103.681 170.097,104.220 170.040 C 104.760 169.983,104.253 169.938,103.094 169.939 C 101.935 169.940,101.494 169.986,102.114 170.042 M120.190 175.905 C 120.190 178.874,120.228 180.089,120.275 178.604 C 120.322 177.120,120.322 174.691,120.275 173.206 C 120.228 171.722,120.190 172.936,120.190 175.905 M236.269 184.332 C 236.269 184.839,236.323 185.046,236.390 184.793 C 236.456 184.539,236.456 184.124,236.390 183.871 C 236.323 183.618,236.269 183.825,236.269 184.332 M199.935 227.913 C 199.938 228.492,199.992 228.698,200.055 228.371 C 200.118 228.043,200.115 227.569,200.049 227.318 C 199.983 227.066,199.932 227.334,199.935 227.913 " stroke="none" fill="#7c7c7b" fill-rule="evenodd"></path></g></svg>